<?xml version="1.0" encoding="UTF-8" standalone="no"?>
<svg
   xmlns:svg="http://www.w3.org/2000/svg"
   xmlns="http://www.w3.org/2000/svg"
   viewBox="0 0 192 192"
   height="256"
   width="256"
   version="1.0">
  <g
     transform="matrix(0.96140032,0,0,0.96140032,2.0742886,-5.286971)"
     id="g1364">
    <path
       style="fill:#ffffff;stroke:none"
       d="m 56.862544,88.514687 3.038059,-0.423573 1.528353,1.612535 116.802834,-11.966327 7.08157,-3.163601 3.00761,1.403403 1.42903,14.442834 -2.27824,2.553806 -7.54976,-2.064063 -115.499102,18.713049 -1.489972,2.02881 -2.64855,0.0825 -3.867789,-8.49394 -5.482878,1.47261 -1.984392,-0.96399 -0.72271,-3.881918 1.379335,-1.563733 6.102252,-0.537192 z"
       id="path893" />
    <path
       style="fill:#ffffff;stroke:none"
       d="m 134.23459,111.93147 -120.177521,61.89398 -6.4955757,-0.0822 -5.038391,-8.37523 11.5482557,-2.62463 85.51437,-59.8396 29.059592,-8.121109 6.86937,11.405269 z"
       id="path891" />
    <path
       style="fill:#ffffff;stroke:none"
       d="m 155.54297,100.59961 c -25.5768,-0.41556 -50.17607,14.22628 -61.171876,39.05273 -14.66107,33.10194 0.335574,71.94831 33.437496,86.60938 33.10194,14.66107 71.94831,-0.33752 86.60938,-33.43945 14.66107,-33.10194 -0.33752,-71.94636 -33.43945,-86.60743 -8.27548,-3.66526 -16.90995,-5.47671 -25.43555,-5.61523 z m -0.1875,8.8418 c 6.33127,0.11045 12.73579,1.2972 18.96484,3.64062 l -17.16797,38.76367 a 14.671572,14.671572 0 0 0 -0.39648,-0.0781 l -4.52539,-42.28711 c 1.03918,-0.0395 2.08061,-0.0573 3.125,-0.0391 z m -9.74414,0.68945 4.50781,42.08984 a 14.671572,14.671572 0 0 0 -0.35352,0.11133 L 124.625,117.86914 c 6.40639,-3.94035 13.54695,-6.57159 20.98633,-7.73828 z m 34.78711,5.64453 c 6.94876,3.57065 12.86877,8.40036 17.60937,14.08203 l -34.32812,25.04102 a 14.671572,14.671572 0 0 0 -0.45117,-0.35547 z m -61.22266,5.9043 24.90625,34.14062 a 14.671572,14.671572 0 0 0 -0.33594,0.34961 l -39.07617,-17.30859 c 3.73967,-6.81659 8.70678,-12.59802 14.50586,-17.18164 z m 82.7793,13.52539 c 4.19595,6.43466 7.05807,13.65948 8.38672,21.2207 l -42.27149,4.52734 a 14.671572,14.671572 0 0 0 -0.33398,-0.78515 z m -100.14063,9.66406 38.56641,17.08203 a 14.671572,14.671572 0 0 0 -0.21289,0.69922 l -42.556642,4.55664 c -0.125098,-7.4455 1.226242,-15.02617 4.203122,-22.33789 z m 109.2793,18.16406 c 0.42797,7.5738 -0.66098,15.33228 -3.44141,22.84375 L 168.84766,168.6875 a 14.671572,14.671572 0 0 0 0.14257,-1.14648 z m -71.01953,6.3125 a 14.671572,14.671572 0 0 0 0.25195,1.00196 l -34.56445,25.21679 c -3.99694,-6.63315 -6.613397,-14.03083 -7.654298,-21.72461 z M 166.2832,174.82422 205,191.97266 c -3.66582,7.22833 -8.69658,13.34572 -14.625,18.20117 l -24.97852,-34.23828 a 14.671572,14.671572 0 0 0 0.88672,-1.11133 z m -22.66992,1.35547 a 14.671572,14.671572 0 0 0 0.94727,0.92969 l -17.27344,38.99804 c -7.09184,-3.84175 -13.07927,-9.00372 -17.77149,-15.05273 z m 16.36524,3.60742 25.01953,34.29492 c -6.66125,4.25808 -14.15388,7.08036 -21.97266,8.28516 l -4.50391,-42.06641 a 14.671572,14.671572 0 0 0 1.45704,-0.51367 z m -9.57813,0.55273 a 14.671572,14.671572 0 0 0 1.47461,0.33594 l 4.5332,42.32813 c -7.68406,0.2716 -15.53426,-1.03359 -23.10156,-4.06836 z"
       transform="scale(0.75)"
       id="path885" />
  </g>
</svg>
