<?xml version="1.0" encoding="UTF-8" standalone="no"?>
<svg
   xmlns:dc="http://purl.org/dc/elements/1.1/"
   xmlns:cc="http://creativecommons.org/ns#"
   xmlns:rdf="http://www.w3.org/1999/02/22-rdf-syntax-ns#"
   xmlns:svg="http://www.w3.org/2000/svg"
   xmlns="http://www.w3.org/2000/svg"
   version="1.1"
   id="svg2"
   height="128"
   width="111">
  <g
     style="fill:#ffffff;opacity:1.0;stroke:none"
     transform="translate(0,-994.51967)"
     id="layer1">
    <g
       transform="matrix(1.7168401,0,0,1.7168401,-3.9105801,987.19448)"
       id="layer1-6">
      <path
         style="fill-rule:nonzero"
         d="M 34.666667,4.2666667 C 18.465822,4.2666667 5.3333312,17.399156 5.3333333,33.6 c 0,16.200849 13.1324917,29.333337 29.3333337,29.333333 15.13596,0 27.594255,-11.48142 29.166666,-26.2 -1.756763,8.986098 -9.691515,15.8 -19.233333,15.8 C 33.769559,52.533331 24.966667,43.780205 24.966667,33 29.596019,39.143835 36.884413,42.766667 44.6,42.766667 c 7.607273,-2e-6 14.763089,-3.51261 19.4,-9.5 -0.08947,-7.655857 -3.179708,-14.97971 -8.6,-20.4 C 49.898768,7.365432 42.446592,4.2666667 34.666667,4.2666667 Z M 34.833333,20 c 3.700906,0 6.7,2.999094 6.7,6.7 0,3.700906 -2.999094,6.7 -6.7,6.7 -3.700905,0 -6.7,-2.999094 -6.7,-6.7 0,-3.700906 2.999095,-6.7 6.7,-6.7 z"
         id="path2162" />
    </g>
    <g
       id="layer1-0"
       transform="matrix(0.40983597,0,0,0.40983597,0,662.47067)">
      <path
         style="fill-rule:nonzero"
         d="m 19.951988,1082.6915 c -11.0011471,0 -19.9519901507159,8.8751 -19.951988,19.8763 0,11.0011 8.950843,19.9519 19.951988,19.9519 10.278041,0 18.732518,-7.7575 19.800262,-17.752 -1.192927,6.102 -6.644961,10.6967 -13.124313,10.6967 -7.354384,0 -13.276036,-5.9558 -13.276036,-13.2761 3.143552,4.1719 8.036785,6.6001 13.276036,6.6001 5.165705,0 10.051498,-2.3826 13.200179,-6.4483 -0.06076,-5.1987 -2.160824,-10.1264 -5.841463,-13.8071 -3.735601,-3.7356 -8.751725,-5.8415 -14.034665,-5.8415 z m 0.07585,10.6968 c 2.513092,0 4.551784,2.0387 4.551784,4.5516 0,2.5132 -2.038692,4.5518 -4.551784,4.5518 -2.513091,0 -4.551781,-2.0386 -4.551781,-4.5518 0,-2.5129 2.03869,-4.5516 4.551781,-4.5516 z"
         id="path2162-0" />
      <g
         id="g3845"
         transform="matrix(2.2758922,0,0,2.2758922,-174.78851,-1242.5894)">
        <path
           d="m 101.89338,1016.7042 v 21.8086 h -4.188208 v -21.8086 h 4.188208"
           id="path3821" />
        <path
           d="m 120.18222,1038.5128 h -4.18821 v -1.9146 c -1.15676,1.7351 -2.77221,2.6027 -4.84636,2.6027 -1.71518,0 -3.05142,-0.4886 -4.00872,-1.4659 -0.93736,-0.9772 -1.40604,-2.3534 -1.40604,-4.1284 v -11.2483 h 4.18821 v 10.3808 c -10e-6,1.9345 0.89747,2.9018 2.69241,2.9018 1.01714,0 1.83483,-0.2892 2.4531,-0.8675 0.61825,-0.5784 0.92738,-1.3463 0.9274,-2.3036 v -10.1115 h 4.18821 v 16.1545"
           id="path3823" />
        <path
           d="m 129.94458,1039.2009 c -1.99439,0 -3.62979,-0.8177 -4.90619,-2.4531 -1.25647,-1.6354 -1.88469,-3.6597 -1.88469,-6.0729 0,-2.4332 0.64817,-4.4674 1.94452,-6.1028 1.29635,-1.6554 2.9118,-2.483 4.84636,-2.483 1.95449,0 3.44031,0.7878 4.45746,2.3633 v -7.7482 h 4.1882 v 21.8086 h -4.1882 v -1.6453 c -1.0371,1.5556 -2.52291,2.3334 -4.45746,2.3334 m 0.92739,-13.6117 c -1.03709,0 -1.88471,0.4787 -2.54284,1.436 -0.65815,0.9373 -0.98723,2.1539 -0.98722,3.6497 -1e-5,1.4758 0.32907,2.6824 0.98722,3.6198 0.65813,0.9374 1.50575,1.406 2.54284,1.406 1.03708,0 1.88468,-0.4587 2.54285,-1.3761 0.65813,-0.9174 0.9872,-2.114 0.98722,-3.5899 -2e-5,-1.5356 -0.32909,-2.7722 -0.98722,-3.7095 -0.63822,-0.9573 -1.48584,-1.436 -2.54285,-1.436"
           id="path3825" />
        <path
           d="m 146.76707,1022.3583 v 16.1545 h -4.18821 v -16.1545 h 4.18821 m 0,-5.6541 v 3.7395 h -4.18821 v -3.7395 h 4.18821"
           id="path3827" />
      </g>
      <g
         id="g3851"
         transform="matrix(2.2758922,0,0,2.2758922,-174.78851,-1242.5894)">
        <path
           d="m 153.51871,1035.4016 v 3.1112 h -3.11124 v -3.1112 h 3.11124"
           id="path3829" />
        <path
           d="m 157.1296,1022.8369 h 2.30352 v 2.6326 c 0.69803,-1.0969 1.44592,-1.8846 2.24368,-2.3633 0.8177,-0.4786 1.80492,-0.718 2.96166,-0.718 1.51573,0 2.72233,0.3889 3.61982,1.1667 0.89745,0.7779 1.3462,1.8149 1.34621,3.1113 v 11.8466 h -2.48301 v -10.8594 c -1e-5,-0.9374 -0.2892,-1.6853 -0.86756,-2.2437 -0.57838,-0.5584 -1.36617,-0.8376 -2.36335,-0.8376 -1.27642,0 -2.30352,0.4886 -3.08132,1.4658 -0.77782,0.9574 -1.16672,2.2338 -1.16672,3.8293 v 8.6456 h -2.51293 v -15.6759"
           id="path3831" />
        <path
           d="M 186.7425,1031.5125 H 175.195 c 0.0199,1.436 0.29915,2.5528 0.83764,3.3506 0.85759,1.3562 2.11405,2.0343 3.7694,2.0343 2.03426,0 3.40041,-1.0471 4.09846,-3.1412 h 2.51292 c -0.31912,1.7152 -1.06701,3.0514 -2.24368,4.0087 -1.17671,0.9573 -2.66252,1.436 -4.45745,1.436 -2.19384,0 -3.92895,-0.7379 -5.20536,-2.2138 -1.2764,-1.4958 -1.9146,-3.53 -1.9146,-6.1028 0,-2.5727 0.64817,-4.627 1.94452,-6.1627 1.31629,-1.5556 3.06138,-2.3334 5.23527,-2.3334 1.47584,0 2.77218,0.369 3.88905,1.1069 1.13678,0.7379 1.95449,1.7451 2.45309,3.0215 0.41881,1.0969 0.62823,2.7622 0.62824,4.9959 m -11.48766,-2.0342 h 8.79524 c 0.0199,-0.04 0.0299,-0.1 0.0299,-0.1795 -1e-5,-1.2964 -0.41883,-2.3833 -1.25646,-3.2609 -0.83766,-0.8974 -1.86477,-1.3462 -3.08134,-1.3462 -1.25646,0 -2.29354,0.4388 -3.11124,1.3163 -0.81769,0.8576 -1.2764,2.0144 -1.37612,3.4703"
           id="path3833" />
        <path
           d="m 195.35452,1022.8369 v 2.0343 h -2.57277 v 10.7398 c 0,0.5584 0.0897,0.9374 0.26925,1.1368 0.19943,0.1795 0.56839,0.2692 1.10688,0.2692 0.49859,0 0.89747,-0.04 1.19664,-0.1196 v 2.0941 c -0.77783,0.1396 -1.45592,0.2094 -2.03429,0.2094 -0.97724,0 -1.72514,-0.2194 -2.24368,-0.6582 -0.51853,-0.4188 -0.77781,-1.0271 -0.77781,-1.8248 v -11.8467 h -2.12402 v -2.0343 h 2.12402 v -4.3078 h 2.48301 v 4.3078 h 2.57277"
           id="path3835" />
      </g>
    </g>
  </g>
</svg>
