<?xml version="1.0" encoding="UTF-8" standalone="no"?>
<svg
   xmlns:svg="http://www.w3.org/2000/svg"
   xmlns="http://www.w3.org/2000/svg"
   viewBox="0 0 192 192"
   height="256"
   width="256"
   version="1.0">
  <path
     transform="scale(0.75)"
     d="m 120.89844,4.7421875 c -3.28134,-2.653e-4 -5.94146,4.5373266 -5.94141,10.1347655 0.003,2.161868 0.41058,4.265619 1.16406,6.003906 C 110.75721,21.142234 105.38071,21.856001 99.882812,23 l 3.644528,30.138672 h 1.78125 c -0.10031,0.496329 -0.1985,0.96626 -0.30273,1.507812 0.0882,7.372035 0.68873,14.950209 4.41211,21.185547 2.40856,0.13882 2.17954,6.251344 -1.54102,6.265625 l -1.77929,6.677735 c -6.233622,1.87747 -12.766227,3.043971 -17.371098,4.74414 -6.526974,13.399929 -12.330118,28.139079 -19.560546,40.787109 -10.62512,21.92795 -1.987787,19.90186 18.173762,42.55184 l -5.038997,9.89738 -37.451172,30.5293 c 0,0 6.008618,25.39531 13.31836,26.84765 3.666338,-2.38286 22.632812,-38.82812 22.632812,-38.82812 0,0 2.370575,-0.72986 6.154297,-2.92969 -0.388876,3.79933 -0.446814,7.07578 0.363281,9.86523 0,0 1.511719,1.51344 1.511719,6.42969 -2.440069,24.43224 -1.41784,26.16479 -1.269531,37.33008 h 28.207033 c 0.59334,-3.55723 1.03966,-6.76539 1.29883,-9.37695 1.5127,-14.24452 6.05111,-21.20868 8.57226,-18.6875 4.134,11.42897 3.7482,16.84188 7.3711,28.06445 h 29.85156 c 1.3048,-20.87675 -1.40949,-35.6035 -3.69141,-46.5625 l -0.37695,-9.95898 c 12.80148,-1.30107 12.94394,-8.10324 11.97461,-16.13477 -0.20716,-8.52912 -3.6709,-12.87601 -6.30274,-14.875 7.53056,-1.39321 16.36917,-13.55187 11.84961,-20.29492 -0.75636,-1.00846 -2.018,-3.78264 -2.90039,-6.17774 -4.44526,-11.37224 -5.05345,-20.97999 -7.82031,-29.77734 l 24.9707,-25.742188 5.11524,5.494141 60.34375,-63.96875 -0.084,-8.806641 -51.375,51.001954 -5.30273,-4.320313 -37.89063,37.308597 c -2.38299,-4.676493 -4.72958,-8.776816 -6.48632,-11.912112 -3.97392,-2.88012 -17.10005,-0.416343 -18.75977,-4.664063 -1.26056,-3.65568 -2.0408,-6.256348 -3.93164,-5.5 -1.13455,0.378172 -1.76367,-0.250979 -1.76367,-1.763672 0,-3.151441 -0.45076,-4.318812 1.02343,-6.664062 3.24788,-2.81011 3.61632,-7.698371 4.125,-12.904297 0.23119,-2.295884 0.0892,-4.530696 -0.30859,-6.638672 h 1.99024 L 140.90625,23 c -5.1814,-1.134285 -10.23149,-1.822796 -15.23828,-2.097656 0.75882,-1.74255 1.16961,-3.854673 1.17187,-6.025391 5e-5,-5.5974322 -2.66006,-10.1350214 -5.9414,-10.1347655 z M 91.935547,140.08984 c 1.624123,-0.60191 2.563946,5.03634 3.072265,6.69727 1.38663,4.91625 1.520847,11.14354 -0.496093,12.65625 -3.63879,0.68037 -11.767683,-6.92158 -7.859903,-12.78782 1.731072,-3.60246 2.339693,-6.12926 5.283731,-6.5657 z m 62.128903,19.80664 c 0.6618,-0.0629 1.70215,0.94544 3.21485,3.0254 1.89082,2.52114 2.0173,3.53027 0.88281,5.04296 -2.26905,2.52116 -5.04297,7e-5 -5.04297,-4.66406 0,-2.206 0.28351,-3.34127 0.94531,-3.4043 z"
     style="fill:#ffffff;stroke:none" />
</svg>
