<?xml version="1.0" encoding="UTF-8" standalone="no"?>
<svg
   xmlns:svg="http://www.w3.org/2000/svg"
   xmlns="http://www.w3.org/2000/svg"
   version="1.0"
   width="256"
   height="256"
   viewBox="0 0 192 192">
  <path
     transform="scale(0.75)"
     d="m 216.66797,13.957031 c -35.77105,39.573996 -52.78507,51.312141 -78.68164,67.001953 -0.99338,-1.60332 -2.14862,-3.237189 -3.4961,-4.90039 l -3.24218,2.742187 c 0.80153,0.989218 1.49408,1.940314 2.13281,2.871094 -6.02954,-0.559213 -11.58136,1.34151 -15.47461,5.068359 -8.07433,5.272958 -8.82595,4.108648 -21.136719,7.279297 -0.193113,1.863362 -1.170801,2.918933 -2.314453,3.714844 -2.283935,0.609055 -16.67698,-4.169047 -18.960937,-3.986328 -4.723648,0.106813 -7.835378,-0.370775 -12.636719,-0.884766 -0.138279,-2.735856 -1.816704,-10.300347 1.77539,-10.517578 4.541699,0.298479 9.347538,1.232618 9.085938,-3.271484 0.546648,-4.826896 -0.391276,-2.858454 0.658203,-8.869141 6.265996,-0.570731 4.382139,-1.334957 -1.052734,-9.796875 2.53282,-1.015207 4.908783,-2.296882 6.939453,-4.001953 -3.486039,-2.248575 -4.856124,-1.896624 -7.609375,-4.316406 -2.604015,-6.05476 -3.187696,-8.121643 -8.683594,-9.853516 l -1.292969,-9.091797 c 0,0 8.822225,0.402749 9.283204,-8.085937 0.337401,-6.213051 -3.211234,-9.335529 -10.376954,-10.226563 -39.884373,0.557021 -46.441514,37.536208 -26.421875,62.888672 -4.038658,5.795237 -8.537366,9.685912 -1.597656,8.880859 1.574501,-0.204568 5.049386,-1.028054 8.541016,-2.015624 0.168963,1.756335 0.130232,3.54771 0.06445,6.669921 -5.06128,1.482506 -10.729362,3.059018 -14.03125,4.664063 -14.040299,23.859628 -3.119876,30.954938 -2.921875,61.324218 -1.246027,8.52668 -5.261213,17.03363 -7.675781,23.96484 C 14.235644,181.49208 4.2042757,179.415 0,179.27148 V 256 h 163.83984 c 2.24596,-15.70725 2.98597,-23.80001 -3.62695,-51.18945 2.03627,-14.56002 1.09909,-31.84942 22.50586,-32.64649 1.93715,9.4274 1.88408,11.42983 9.62109,18.69727 3.00951,6.04545 2.47811,11.27451 6.03125,19.40039 -0.137,3.80272 -0.22603,5.65405 3.10352,12.61328 l 7.625,1.31836 c 1.507,-1.56907 1.68183,-0.77696 2.65039,-0.43164 4.58889,2.69279 10.59442,0.1908 10.71094,-4.91211 0.66997,-3.04527 1.09179,-10.02167 1.09179,-19.2793 0.0304,-8.19178 0.33625,-18.52909 0.94532,-20.38672 1.90774,-2.99442 3.8703,-4.97601 6.30468,-7.70898 1.20598,-8.80069 1.39814,-27.02897 6.21289,-32.36719 2.61604,-1.9243 5.5575,-3.59519 5.89649,-5.63086 -2.15244,-1.17311 -5.85946,-0.29991 -9.39844,-0.45898 -8.59454,-0.73617 -12.45335,-3.04632 -16.59765,-5.20899 -21.39326,-9.82606 -22.96106,-15.23684 -53.75586,-9.16406 -27.32872,6.97831 -47.78756,28.38422 -65.099613,46.72656 -4.237521,-12.49285 -5.614169,-13.09782 -3.6875,-14.52343 0.609055,-0.63951 0.976562,-1.88976 0.976562,-3.19922 -3.172546,-3.82862 -5.352127,-5.6286 -0.427734,-9.10352 6.020045,-1.98516 -4.911207,-9.29374 -6.519531,-1.61719 -1.988018,6.78404 -6.442891,5.02173 -16.044922,6.85352 3.500985,-11.67692 2.968234,-21.53778 1.978516,-29.99609 8.625988,-1.54784 18.146837,3.3487 25.419921,-0.18555 5.341491,-2.26301 4.624301,-1.09582 7.611331,-1.52149 1.03343,-0.39747 8.69588,-6.13699 11.35351,-8.44531 0.0204,0.0125 0.0402,0.0288 0.0606,0.041 8.9706,8.25012 27.94505,3.94326 24.74414,-15.046877 25.60057,-13.609437 57.1537,-41.154361 66.76758,-54.699219 4.03268,-5.681586 5.55071,-9.231212 6.375,-19.970703 z m -78.2207,75.320313 c 5.05202,14.730686 -9.95633,17.884836 -16.49415,12.253906 4.05858,-1.22826 8.08939,-0.12581 12.73243,-3.978516 1.55607,-2.84141 1.61907,-4.939279 1.64453,-7.136718 0.69732,-0.356866 1.40045,-0.729853 2.11719,-1.138672 z M 76.158203,158.08594 c 2.396541,-0.0124 5.042034,0.79817 7.162109,1.04492 6.224824,5.4302 8.090142,6.55065 8.619141,11.05273 -7.636787,-4.9163 -9.71082,-5.96835 -18.548828,-4.53906 -1.749593,-1.29075 -1.40559,-2.6522 -2.007813,-5.38672 1.198918,-1.6544 2.911415,-2.1622 4.775391,-2.17187 z"
     style="fill:#ffffff;stroke:none" />
</svg>
