<?xml version="1.0" encoding="UTF-8" standalone="no"?>
<svg
   xmlns:svg="http://www.w3.org/2000/svg"
   xmlns="http://www.w3.org/2000/svg"
   version="1.1"
   height="245.79793"
   width="33.866666">
  <g transform="translate(0,-51.2)" style="fill:#ffffff;fill-opacity:0.5;stroke:none">
    <path
       d="m 0.51597328,283.06869 q 0,-6.2855 3.00203152,-9.70969 2.9551247,-3.42419 8.3963072,-3.42419 5.722622,0 8.912281,3.4711 3.142751,3.42419 3.142751,9.66278 v 6.52004 h 9.381349 l 0,7.41127 H 0.51597328 Z m 17.26168072,0.37526 q 0,-3.14275 -1.407202,-4.78449 -1.454109,-1.68864 -4.221607,-1.68864 -2.7205907,0 -4.0808862,1.68864 -1.4072023,1.64174 -1.4072023,4.78449 v 6.14478 H 17.777654 Z" />
    <path
       d="m 0.51597328,265.20969 0,-25.0013 H 6.6607565 l 0,17.59003 h 7.1298245 l 0,-15.80757 h 6.144784 v 15.80757 h 7.270545 v -18.106 h 6.144783 v 25.51727 z" />
    <path
       d="m 0.51597328,233.87745 0,-7.41127 H 26.877562 v -14.07202 h 6.473131 v 21.48329 z" />
    <path
       d="m 33.350693,183.51646 -6.379317,2.57987 v 15.19779 l 6.379317,2.57987 v 7.6458 l -32.83471972,-14.25965 0,-7.6458 L 33.350693,175.58922 Z M 21.01422,198.85497 v -10.36639 l -12.7586343,5.15974 z" />
    <path
       d="m 16.792613,150.9991 0,-6.42622 h 12.758634 q 1.923176,2.62678 3.142751,6.2855 1.172669,3.65873 1.172669,7.03601 0,4.92521 -2.204617,8.91228 -2.251524,3.98708 -6.097876,6.28551 -3.89326,2.29843 -8.677748,2.29843 -4.737581,0 -8.5839335,-2.34534 Q 4.4092329,170.69993 2.204616,166.61905 -8.8119508e-7,162.49125 -8.8119508e-7,157.47223 q 0,-3.65872 1.31338878119508,-7.12982 1.3133888,-3.51801 3.5649124,-6.05097 l 5.3004617,4.1747 q -1.7355493,1.82936 -2.7205909,4.2216 -0.9850416,2.39225 -0.9850416,4.78449 0,2.86131 1.4072023,5.25356 1.3602955,2.34533 3.7525392,3.70563 2.345337,1.36029 5.253555,1.36029 2.908218,0 5.347369,-1.36029 2.392244,-1.4072 3.799446,-3.75254 1.360296,-2.39224 1.360296,-5.25356 0,-1.4541 -0.469068,-3.14275 -0.515974,-1.68864 -1.360295,-3.28347 z" />
    <path
       d="m 0.51597328,138.14006 0,-7.41127 H 33.350693 v 7.41127 z" />
    <path
       d="m 19.794644,116.63332 q 3.518006,0 5.581903,-1.97009 2.01699,-2.01699 2.01699,-5.34736 0,-3.23657 -2.01699,-5.15975 -2.01699,-1.92317 -5.581903,-1.92317 H 0.51597328 l 0,-7.411267 H 19.794644 q 4.315421,0 7.505079,1.782456 3.142752,1.735549 4.878301,5.019021 1.688643,3.28347 1.688643,7.73961 0,4.45614 -1.688643,7.78652 -1.735549,3.33038 -4.878301,5.11284 -3.189658,1.78245 -7.505079,1.78245 H 0.51597328 l 0,-7.41126 z" />
    <path
       d="m 0.51597328,88.118421 0,-8.255587 L 20.685872,69.637164 0.51597328,59.505308 l 0,-8.20868 H 33.350693 v 6.660758 H 11.163804 l 18.85651,9.334441 v 4.784488 l -18.85651,9.381348 h 22.186889 v 6.660758 z" />
  </g>
</svg>
