<?xml version="1.0" encoding="UTF-8" standalone="no"?>
<svg
   xmlns:dc="http://purl.org/dc/elements/1.1/"
   xmlns:cc="http://creativecommons.org/ns#"
   xmlns:rdf="http://www.w3.org/1999/02/22-rdf-syntax-ns#"
   xmlns:svg="http://www.w3.org/2000/svg"
   xmlns="http://www.w3.org/2000/svg"
   xmlns:sodipodi="http://sodipodi.sourceforge.net/DTD/sodipodi-0.dtd"
   xmlns:inkscape="http://www.inkscape.org/namespaces/inkscape"
   version="1.0"
   width="256"
   height="256"
   viewBox="0 0 192 192"
   preserveAspectRatio="xMidYMid meet"
   id="svg15"
   sodipodi:docname="units.svg"
   inkscape:version="0.92.4 (5da689c313, 2019-01-14)">
  <metadata
     id="metadata21">
    <rdf:RDF>
      <cc:Work
         rdf:about="">
        <dc:format>image/svg+xml</dc:format>
        <dc:type
           rdf:resource="http://purl.org/dc/dcmitype/StillImage" />
        <dc:title />
      </cc:Work>
    </rdf:RDF>
  </metadata>
  <defs
     id="defs19">
    <filter
       inkscape:collect="always"
       style="color-interpolation-filters:sRGB"
       id="filter4857"
       x="-0.048"
       width="1.096"
       y="-0.048"
       height="1.096">
      <feGaussianBlur
         inkscape:collect="always"
         stdDeviation="0.49126984"
         id="feGaussianBlur4859" />
    </filter>
    <filter
       inkscape:collect="always"
       style="color-interpolation-filters:sRGB"
       id="filter1403"
       x="-0.023805812"
       width="1.0476116"
       y="-0.073806144"
       height="1.1476123">
      <feGaussianBlur
         inkscape:collect="always"
         stdDeviation="0.40924804"
         id="feGaussianBlur1405" />
    </filter>
    <filter
       inkscape:collect="always"
       style="color-interpolation-filters:sRGB"
       id="filter4857-0"
       x="-0.048"
       width="1.096"
       y="-0.048"
       height="1.096">
      <feGaussianBlur
         inkscape:collect="always"
         stdDeviation="0.49126984"
         id="feGaussianBlur4859-1" />
    </filter>
    <filter
       inkscape:collect="always"
       style="color-interpolation-filters:sRGB"
       id="filter6141"
       x="-0.0784"
       width="1.1568"
       y="-0.0784"
       height="1.1568">
      <feGaussianBlur
         inkscape:collect="always"
         stdDeviation="2.94"
         id="feGaussianBlur6143" />
    </filter>
    <filter
       inkscape:collect="always"
       style="color-interpolation-filters:sRGB"
       id="filter6145"
       x="-0.0784"
       width="1.1568"
       y="-0.0784"
       height="1.1568">
      <feGaussianBlur
         inkscape:collect="always"
         stdDeviation="2.94"
         id="feGaussianBlur6147" />
    </filter>
    <filter
       inkscape:collect="always"
       style="color-interpolation-filters:sRGB"
       id="filter6202"
       x="-0.033316609"
       width="1.0666332"
       y="-0.085825068"
       height="1.1716501">
      <feGaussianBlur
         inkscape:collect="always"
         stdDeviation="4.1892628"
         id="feGaussianBlur6204" />
    </filter>
    <filter
       inkscape:collect="always"
       style="color-interpolation-filters:sRGB"
       id="filter6253"
       x="-0.089893156"
       width="1.1797863"
       y="-0.055574748"
       height="1.1111495">
      <feGaussianBlur
         inkscape:collect="always"
         stdDeviation="3.5106244"
         id="feGaussianBlur6255" />
    </filter>
    <filter
       inkscape:collect="always"
       style="color-interpolation-filters:sRGB"
       id="filter6257"
       x="-0.089893156"
       width="1.1797863"
       y="-0.055574748"
       height="1.1111495">
      <feGaussianBlur
         inkscape:collect="always"
         stdDeviation="3.5106244"
         id="feGaussianBlur6259" />
    </filter>
    <filter
       inkscape:collect="always"
       style="color-interpolation-filters:sRGB"
       id="filter6288"
       x="-0.029045424"
       width="1.0580908"
       y="-0.13816284"
       height="1.2763257">
      <feGaussianBlur
         inkscape:collect="always"
         stdDeviation="4.797246"
         id="feGaussianBlur6290" />
    </filter>
  </defs>
  <sodipodi:namedview
     pagecolor="#3f3f3f"
     bordercolor="#666666"
     borderopacity="1"
     objecttolerance="10"
     gridtolerance="10"
     guidetolerance="10"
     inkscape:pageopacity="0"
     inkscape:pageshadow="2"
     inkscape:window-width="1073"
     inkscape:window-height="721"
     id="namedview17"
     showgrid="false"
     units="px"
     inkscape:zoom="0.25"
     inkscape:cx="824.10417"
     inkscape:cy="602.78952"
     inkscape:window-x="531"
     inkscape:window-y="161"
     inkscape:window-maximized="0"
     inkscape:current-layer="svg15"
     inkscape:snap-global="true" />
  <g
     id="g1364"
     transform="matrix(0.96140032,0,0,0.96140032,2.0742886,-5.286971)">
    <path
       inkscape:transform-center-y="0.12530381"
       inkscape:transform-center-x="-4.3331839"
       sodipodi:nodetypes="ccccccccccccccccccc"
       inkscape:connector-curvature="0"
       id="path893"
       d="m 56.862544,88.514687 3.038059,-0.423573 1.528353,1.612535 116.802834,-11.966327 7.08157,-3.163601 3.00761,1.403403 1.42903,14.442834 -2.27824,2.553806 -7.54976,-2.064063 -115.499102,18.713049 -1.489972,2.02881 -2.64855,0.0825 -3.867789,-8.49394 -5.482878,1.47261 -1.984392,-0.96399 -0.72271,-3.881918 1.379335,-1.563733 6.102252,-0.537192 z"
       style="fill:#ffffff;stroke:none;stroke-width:0.39230537px;stroke-linecap:butt;stroke-linejoin:miter;stroke-opacity:1" />
    <path
       inkscape:transform-center-y="19.686727"
       inkscape:transform-center-x="41.557452"
       sodipodi:nodetypes="ccccccccc"
       inkscape:connector-curvature="0"
       id="path891"
       d="m 134.23459,111.93147 -120.177521,61.89398 -6.4955757,-0.0822 -5.038391,-8.37523 11.5482557,-2.62463 85.51437,-59.8396 29.059592,-8.121109 6.86937,11.405269 z"
       style="fill:#ffffff;stroke:none;stroke-width:0.34804317px;stroke-linecap:butt;stroke-linejoin:miter;stroke-opacity:1" />
    <path
       id="path885"
       transform="scale(0.75)"
       d="m 155.54297,100.59961 c -25.5768,-0.41556 -50.17607,14.22628 -61.171876,39.05273 -14.66107,33.10194 0.335574,71.94831 33.437496,86.60938 33.10194,14.66107 71.94831,-0.33752 86.60938,-33.43945 14.66107,-33.10194 -0.33752,-71.94636 -33.43945,-86.60743 -8.27548,-3.66526 -16.90995,-5.47671 -25.43555,-5.61523 z m -0.1875,8.8418 c 6.33127,0.11045 12.73579,1.2972 18.96484,3.64062 l -17.16797,38.76367 a 14.671572,14.671572 0 0 0 -0.39648,-0.0781 l -4.52539,-42.28711 c 1.03918,-0.0395 2.08061,-0.0573 3.125,-0.0391 z m -9.74414,0.68945 4.50781,42.08984 a 14.671572,14.671572 0 0 0 -0.35352,0.11133 L 124.625,117.86914 c 6.40639,-3.94035 13.54695,-6.57159 20.98633,-7.73828 z m 34.78711,5.64453 c 6.94876,3.57065 12.86877,8.40036 17.60937,14.08203 l -34.32812,25.04102 a 14.671572,14.671572 0 0 0 -0.45117,-0.35547 z m -61.22266,5.9043 24.90625,34.14062 a 14.671572,14.671572 0 0 0 -0.33594,0.34961 l -39.07617,-17.30859 c 3.73967,-6.81659 8.70678,-12.59802 14.50586,-17.18164 z m 82.7793,13.52539 c 4.19595,6.43466 7.05807,13.65948 8.38672,21.2207 l -42.27149,4.52734 a 14.671572,14.671572 0 0 0 -0.33398,-0.78515 z m -100.14063,9.66406 38.56641,17.08203 a 14.671572,14.671572 0 0 0 -0.21289,0.69922 l -42.556642,4.55664 c -0.125098,-7.4455 1.226242,-15.02617 4.203122,-22.33789 z m 109.2793,18.16406 c 0.42797,7.5738 -0.66098,15.33228 -3.44141,22.84375 L 168.84766,168.6875 a 14.671572,14.671572 0 0 0 0.14257,-1.14648 z m -71.01953,6.3125 a 14.671572,14.671572 0 0 0 0.25195,1.00196 l -34.56445,25.21679 c -3.99694,-6.63315 -6.613397,-14.03083 -7.654298,-21.72461 z M 166.2832,174.82422 205,191.97266 c -3.66582,7.22833 -8.69658,13.34572 -14.625,18.20117 l -24.97852,-34.23828 a 14.671572,14.671572 0 0 0 0.88672,-1.11133 z m -22.66992,1.35547 a 14.671572,14.671572 0 0 0 0.94727,0.92969 l -17.27344,38.99804 c -7.09184,-3.84175 -13.07927,-9.00372 -17.77149,-15.05273 z m 16.36524,3.60742 25.01953,34.29492 c -6.66125,4.25808 -14.15388,7.08036 -21.97266,8.28516 l -4.50391,-42.06641 a 14.671572,14.671572 0 0 0 1.45704,-0.51367 z m -9.57813,0.55273 a 14.671572,14.671572 0 0 0 1.47461,0.33594 l 4.5332,42.32813 c -7.68406,0.2716 -15.53426,-1.03359 -23.10156,-4.06836 z"
       style="color:#000000;font-style:normal;font-variant:normal;font-weight:normal;font-stretch:normal;font-size:medium;line-height:normal;font-family:sans-serif;font-variant-ligatures:normal;font-variant-position:normal;font-variant-caps:normal;font-variant-numeric:normal;font-variant-alternates:normal;font-feature-settings:normal;text-indent:0;text-align:start;text-decoration:none;text-decoration-line:none;text-decoration-style:solid;text-decoration-color:#000000;letter-spacing:normal;word-spacing:normal;text-transform:none;writing-mode:lr-tb;direction:ltr;text-orientation:mixed;dominant-baseline:auto;baseline-shift:baseline;text-anchor:start;white-space:normal;shape-padding:0;clip-rule:nonzero;display:inline;overflow:visible;visibility:visible;opacity:1;isolation:auto;mix-blend-mode:normal;color-interpolation:sRGB;color-interpolation-filters:linearRGB;solid-color:#000000;solid-opacity:1;vector-effect:none;fill:#ffffff;fill-opacity:1;fill-rule:nonzero;stroke:none;stroke-width:8.87267971;stroke-linecap:round;stroke-linejoin:round;stroke-miterlimit:4;stroke-dasharray:none;stroke-dashoffset:0;stroke-opacity:1;color-rendering:auto;image-rendering:auto;shape-rendering:auto;text-rendering:auto;enable-background:accumulate"
       inkscape:connector-curvature="0" />
  </g>
  <g
     id="g1299"
     transform="matrix(1.0114792,0,0,1.0114792,-68.894285,-3.8516128)"
     style="fill:#ffffff">
    <path
       style="fill:#ffffff;stroke:none;stroke-width:0.05721758"
       sodipodi:nodetypes="ccccccccccccscccccccsccccscccccsccccccccccscccccccccccsccccccccccsssccccccccccccsscsccccccsccccscccccc"
       inkscape:connector-curvature="0"
       class="node"
       id="node1-7"
       d="m -232.13929,38.163567 c -2.46035,1.544875 -2.86263,2.897012 -3.52014,6.313262 -0.0796,3.128669 0.33704,4.998208 0.786,6.685246 0.42649,1.096306 0.49073,2.038268 1.216,2.930909 1.09325,0.06301 0.98992,2.837654 -0.69884,2.844136 l -0.80754,3.031426 c -2.82944,0.852183 -5.79448,1.381492 -7.88463,2.1532 -0.82613,2.134403 -1.44106,3.235988 -2.41376,5.353039 -0.62939,1.430439 -1.54487,3.261402 -2.11705,4.062448 -0.51496,0.801046 -1.316,2.460356 -1.71653,3.661925 -0.40052,1.258787 -1.60209,3.719143 -2.632,5.435671 -3.37584,5.607323 -3.31862,8.067679 0.3433,12.244563 1.25879,1.430439 2.11705,2.746444 1.83096,2.918096 -0.28608,0.171653 -2.11705,1.144352 -4.11966,2.231486 -4.69184,2.460356 -5.14959,3.204186 -3.49028,5.321236 0.74383,0.91548 1.65931,2.51757 2.11706,3.54749 0.74382,1.88818 0.74382,1.88818 2.51757,0.9727 1.37322,-0.68661 2.00261,-0.74383 2.9181,-0.22887 0.68661,0.3433 2.11705,0.51496 3.14696,0.3433 2.28871,-0.40052 2.28871,-0.51495 0.80105,5.60733 -0.68661,2.86088 -0.85826,4.80627 -0.51496,5.14958 0.68661,0.68661 1.48766,-0.17165 1.77375,-1.9454 0.0572,-0.80104 0.51495,-1.48766 0.91548,-1.65931 0.45774,-0.17165 0.68661,0.68661 0.68661,2.9181 -1.52131,6.57995 0.2313,7.8978 -0.6294,22.71538 0.22888,0.45774 -0.21481,1.3652 -0.44368,3.88278 -0.22887,2.51757 -0.12849,0.98732 -0.41458,3.73376 -0.22887,2.74644 -0.62939,5.14958 -0.85826,5.32124 -0.74383,0.45774 -0.6294,3.54749 0.3433,7.09498 0.45774,1.77374 0.68661,11.43691 0.51496,12.58126 -0.57217,3.20419 -3.34307,7.93505 -5.28846,9.7088 -1.20157,1.14435 -1.77375,2.23148 -1.77375,3.37583 l -0.39227,0.28785 3.32649,1.32309 c 1.77375,-0.22887 3.95634,-0.50561 5.32956,-1.42109 1.25879,-0.85826 3.03253,-1.83096 3.94801,-2.23149 1.54488,-0.74382 1.6021,-0.80104 1.31601,-4.29131 -0.40053,-4.80628 0.62939,-19.21851 2.05983,-21.16391 0.9727,-1.25878 1.08713,-2.05983 0.74383,-4.86349 -0.17165,-1.83096 1.21661,-4.01929 1.5027,-5.44973 1.65931,-8.06768 2.04479,-8.40353 2.3881,-8.97571 0.40052,-0.57217 0.45774,-1.14435 1.14435,-8.06767 0.68661,-6.46559 2.74644,-12.70231 3.89079,-11.55796 0.34331,0.34331 1.14435,3.37584 1.88818,6.8089 0.68661,3.37583 1.9454,8.01046 2.74645,10.24194 0.80104,2.28871 1.316,4.63463 1.14435,5.26402 -0.11444,0.62939 0.0572,1.77375 0.45774,2.46036 0.40052,0.74383 0.80105,2.11705 0.85826,3.08975 0.28609,3.71914 -0.28476,2.29398 0.28741,3.03781 0.45774,0.51496 0.51496,2.2887 0.22887,5.43567 -0.3433,4.11967 -0.22887,1.89082 0.62939,2.8063 1.65931,1.6021 4.00392,15.09752 3.43174,18.81667 -0.62939,3.89079 -0.0572,7.32385 1.25879,7.78159 0.51495,0.22887 1.1604,-0.3249 2.01867,0.41892 1.25878,1.02992 2.34592,1.31601 4.69184,1.31601 5.77898,0 5.94779,-0.34566 3.74994,-6.41406 -2.28871,-2.80366 -3.766,-2.01533 -4.39539,-5.73447 -0.68661,-3.94802 -2.11573,-13.38099 -1.14303,-15.6697 1.43044,-3.08975 1.43044,-3.83622 0.0572,-6.81153 -1.25879,-2.68923 -1.03124,-4.69713 -0.97402,-9.27453 0,-1.71653 0.17165,-7.38107 0.28608,-12.58787 -0.8402,-14.69877 -1.65612,-9.89083 -2.00261,-16.30701 l -0.17165,-4.52019 2.46035,-0.51496 c 3.08975,-0.62939 3.60471,-1.83096 2.97532,-6.80889 -0.45774,-3.833579 -1.31601,-6.1795 -2.28871,-6.1795 -0.3433,0 -0.57217,-0.286088 -0.57217,-0.572176 0,-0.343306 0.62939,-0.572176 1.43044,-0.572176 2.57479,0 5.60732,-6.580022 3.94801,-8.639855 -0.3433,-0.457741 -0.91548,-1.716528 -1.316,-2.803662 0.95652,-5.104295 -1.40484,-3.306399 -1.78594,-6.794754 -0.4661,-2.502786 -0.0643,-1.571368 2.64184,-3.478559 6.55452,-3.645995 16.7102,-9.066923 23.20383,-13.117447 1.14435,-0.915481 0.71284,-1.554785 0.0834,-2.355831 -0.68661,-0.858264 -0.85505,-0.526532 -2.74323,0.61782 -7.9304,4.306072 -16.60474,9.552352 -24.48969,13.113079 -0.17166,0 -1.73388,-3.588623 -1.90554,-4.504104 -0.95954,-2.390181 -1.38155,-2.864217 -3.41506,-6.502887 -1.80375,-1.307285 -7.76241,-0.18901 -8.51577,-2.117051 -0.57217,-1.65931 -0.92577,-2.839664 -1.78403,-2.496358 -0.51496,0.171653 -0.80105,-0.114435 -0.80105,-0.801046 0,-1.43044 -0.20415,-1.959966 0.46499,-3.024476 0.57198,-0.909931 0.40263,-0.543207 1.03202,-1.630341 0.47004,-0.933053 0.6954,-2.719351 0.84039,-4.227492 0.11434,-1.189256 0.0123,-2.747045 -0.33105,-4.177485 -0.74383,-2.860879 -0.83037,-2.659999 -2.67539,-4.360712 -2.17427,-1.144351 -5.29037,-1.305459 -7.35021,-0.10389 z m -8.05889,48.135802 c 0.62939,2.231486 0.57218,2.574792 -0.34331,3.261403 -1.88818,1.373222 -5.09236,-1.65931 -3.31862,-3.146967 0.45775,-0.400523 0.85827,-1.029917 0.85827,-1.373222 0,-0.972699 1.316,-2.174268 1.71653,-1.65931 0.22887,0.286088 0.68661,1.602092 1.08713,2.918096 z m 28.26549,7.323851 c 0.85826,1.144352 0.91548,1.602092 0.40052,2.288703 -1.02992,1.144352 -2.2887,0 -2.2887,-2.11705 0,-2.002616 0.51495,-2.059833 1.88818,-0.171653 z m -31.12637,6.98055 c 0.9727,1.77374 0.0572,4.06244 -2.00261,5.03514 -4.17689,2.00262 -5.55011,-0.40052 -2.17427,-3.83358 2.40314,-2.460352 3.37583,-2.746439 4.17688,-1.20156 z" />
    <path
       style="opacity:1;fill:#ffffff;fill-opacity:1;stroke:none;stroke-width:13.85617924;stroke-linecap:round;stroke-linejoin:round;stroke-miterlimit:4;stroke-dasharray:none;stroke-opacity:1"
       d="m -187.24821,64.2003 29.9222,-16.678586 -1.40219,2.302071 -27.35671,16.391407 z"
       id="rect1270"
       inkscape:connector-curvature="0"
       sodipodi:nodetypes="ccccc" />
    <g
       transform="matrix(0.99089118,0,0,0.99089118,-1.9406079,1.0006651)"
       id="g1267"
       style="fill:#ffffff">
      <path
         style="opacity:1;fill:#ffffff;fill-opacity:1;stroke:none;stroke-width:12.7586937;stroke-linecap:round;stroke-linejoin:round;stroke-miterlimit:4;stroke-dasharray:none;stroke-opacity:1"
         d="m -237.87717,30.168131 c 6.06678,-1.262373 11.79692,-1.346531 17.94786,0 l -1.59484,13.186401 h -14.75818 z"
         id="rect1260"
         inkscape:connector-curvature="0"
         sodipodi:nodetypes="ccccc" />
      <ellipse
         style="opacity:1;fill:#ffffff;fill-opacity:1;stroke:none;stroke-width:12.7586937;stroke-linecap:round;stroke-linejoin:round;stroke-miterlimit:4;stroke-dasharray:none;stroke-opacity:1"
         id="path1263"
         cx="-228.68251"
         cy="27.455421"
         rx="1.7673222"
         ry="2.3985088" />
    </g>
  </g>
  <g
     id="g1290"
     transform="matrix(0.9231645,0,0,0.9231645,-25.245999,13.149306)"
     style="fill:#ffffff">
    <path
       style="fill:#ffffff;stroke:none;stroke-width:0.01803567"
       d="m -127.87891,17.152344 c -0.35761,-0.0082 -0.78736,0.02551 -1.29687,0.09766 -0.28857,0.05411 -1.94827,0.360905 -3.67969,0.685547 -2.48892,0.486963 -3.22718,0.702702 -3.58789,1.027344 -0.82964,0.775533 -2.09352,2.561667 -3.10352,4.365234 -0.99196,1.803567 -1.02714,1.839578 -2.34374,2.542969 -1.60518,0.865712 -3.571,2.688334 -6.54688,6.042968 -1.19035,1.334639 -2.34458,2.524598 -2.54297,2.632813 -0.21643,0.108219 -1.37123,0.41547 -2.59765,0.667969 -1.2084,0.252499 -2.47074,0.593537 -2.77735,0.755859 -0.505,0.234463 -0.82946,0.252623 -2.4707,0.07227 -1.06412,-0.10822 -1.96692,-0.233002 -2.03906,-0.28711 -0.37875,-0.216428 -0.0351,0.287916 0.88476,1.333985 0.93785,1.064104 1.2258,1.263227 3.64258,2.435547 5.37463,2.5791 6.33157,3.065613 6.34961,3.173828 0,0.07214 0.10813,3.443469 0.23437,7.519531 0.1984,6.258376 0.1984,7.431429 0,7.59375 -0.14428,0.108219 -0.2539,0.523594 -0.2539,0.902344 0,0.613212 -0.0889,0.757512 -0.66602,1.154297 -0.37875,0.2525 -1.49781,1.082346 -2.50781,1.839843 -1.02803,0.757499 -2.07322,1.405336 -2.34375,1.441407 -0.41482,0.05411 -0.57865,0.252794 -1.17383,1.605468 -0.86571,2.00196 -1.53266,3.949479 -1.78516,5.248047 -0.14429,0.685355 -0.2884,1.046875 -0.46874,1.046875 -0.30662,0 -0.30675,0.576174 -0.0723,5.734375 0.19839,4.094097 0.45173,6.83618 1.35351,14.140625 0.68536,5.392666 0.77457,6.655929 0.57618,7.900391 -0.45089,2.81357 -1.04558,5.14022 -1.71289,6.61914 -0.57714,1.28054 -1.65971,4.20155 -2.83203,7.57422 -0.0542,0.18036 -0.86435,0.23438 -3.20899,0.23438 -6.45677,0 -13.92531,0.57761 -14.79101,1.13671 -0.21643,0.14429 -2.01839,0.44887 -2.88086,0.65821 -4.54499,1.19035 -6.09929,1.22473 -9.34571,3.29883 -4.13014,2.60372 -4.16847,2.94038 -7.74609,5.68554 -0.41482,0.28857 -2.73311,3.30754 -3.70703,4.11914 -4.49761,3.25329 -4.31034,3.21217 -9.04102,2.18164 -4.03031,-1.05813 -7.23699,-2.27099 -12.70508,1.66016 -1.515,0.86571 -5.91405,5.50043 -7.91601,8.33203 -2.39874,3.37266 -2.86787,5.44648 -3.8418,17.02539 l -0.28906,3.42578 0.55859,2.79688 c 0.8116,3.96785 1.57034,7.12403 1.87696,7.70117 0.5591,1.10018 2.10861,5.66278 2.52343,7.48438 0.52303,2.16427 0.83119,3.01135 1.48047,3.94921 0.505,0.73946 0.8821,1.98463 1.60352,5.28516 0.48696,2.20034 0.57753,2.39958 1.37109,3.35547 0.9559,1.15428 1.42578,1.98236 1.42578,2.52344 0.27546,-1.81256 0.97342,-2.28393 0.0742,-3.60743 -0.14428,-2.0741 -0.10795,-2.57868 0.14453,-3.48046 0.16232,-0.57714 0.36145,-1.02827 0.4336,-0.99219 0.0721,0.0361 0.50373,0.25279 0.97265,0.45117 0.7575,0.36072 0.86618,0.4878 1.13672,1.35352 0.18035,0.5591 0.37961,2.23699 0.50586,4.05859 l 0.17969,3.11914 h 0.5957 c 0.43285,0 0.68442,-0.12549 0.88281,-0.41406 0.72143,-1.11821 1.35206,-5.32071 1.64063,-11.00195 0.0721,-1.56911 0.1634,-2.11133 0.34375,-2.11133 0.34268,0 0.55866,0.79413 1.17187,4.05859 0.61322,3.30052 0.97398,4.41797 1.46094,4.41797 1.401,-2.88275 2.77878,-5.07461 1.98438,-9.52149 -0.30662,-0.2525 -0.5772,-1.37215 -1.46094,-5.71874 -0.61322,-2.97589 -1.33448,-6.38387 -1.62305,-7.57422 -0.8116,-3.42678 -0.90189,-4.20277 -0.91992,-7.14258 0,-3.35463 2.38795,-8.33125 3.10938,-11.5957 0.5591,-2.54304 0.44909,-2.36412 2.3789,-3.7168 0.63125,-0.43286 1.64248,-1.47741 2.72461,-2.83008 1.23395,-0.40319 1.36791,-3.93149 2.45508,3.37109 0.90178,5.9157 1.82213,8.94685 3.75195,12.42774 1.17232,2.09214 5.17573,7.3579 8.87305,11.65039 1.71338,1.98392 3.13731,3.69842 3.19141,3.80664 0.12625,0.32463 -1.35204,4.14742 -2.48829,6.41992 -1.64125,3.30052 -3.62396,6.31269 -6.74414,10.1543 -0.95589,1.19035 -1.85812,2.38032 -1.98437,2.63281 -0.21643,0.41482 -0.19952,1.02821 0.19726,4.68945 0.25251,2.3266 0.57791,4.94197 0.74024,5.84375 0.27053,1.38875 0.30572,3.28202 0.3418,13.1836 0.0361,7.68319 0.10811,11.81382 0.23437,12.30078 0.12625,0.43285 0.45179,0.93707 0.8125,1.26172 l 0.61328,0.54101 -0.41406,0.90235 c -0.27054,0.57715 -0.66767,1.06344 -1.06445,1.33398 -0.72143,0.46892 -0.73917,0.52408 -0.39649,1.19141 0.21643,0.43285 0.79346,2.38111 1.08203,3.67968 0.0902,0.37875 0.30675,0.54059 1.22656,0.86524 1.49696,0.54107 5.78804,0.72146 6.90626,0.30664 1.04606,-0.39678 2.79654,-1.13592 2.88671,-1.24414 0.0542,-0.0542 -0.61325,-1.42562 -1.46093,-3.04883 -2.5791,-4.90571 -2.7234,-5.22976 -3.15625,-7.10547 -0.81161,-3.53499 -0.63121,-15.33115 0.30664,-20.83203 0.46893,-2.77749 1.08138,-4.61738 2.41601,-7.30469 1.46089,-2.95785 2.66933,-4.49103 3.46289,-4.38281 l 0.46875,0.0547 -0.43164,1.35351 c -0.63125,1.96589 -0.97461,4.12995 -0.97461,6.16797 v 1.80274 l 0.83008,1.33594 c 0.91983,1.46088 2.83163,5.66173 4.31055,9.44921 1.87571,4.81553 2.70492,7.80948 4.32812,15.78125 1.22643,5.93374 1.69442,7.23387 2.88477,7.79297 0.34268,0.16232 0.63281,0.39569 0.63281,0.50391 0,0.36071 -0.70374,2.29155 -1.06445,2.88672 -0.30662,0.52304 -0.30624,0.64805 -0.0899,1.27929 0.21643,0.64928 0.7034,1.20877 1.1543,1.3711 0.12625,0.0361 0.12482,0.25165 -0.0195,0.64844 -0.28857,0.82964 -0.0714,1.80538 0.43359,1.93164 0.21643,0.054 1.20922,0.28702 2.20118,0.52148 4.09409,1.01 5.1203,1.02886 8.38476,0.19922 1.87571,-0.46893 2.76014,-0.8292 2.97656,-1.17188 0.0721,-0.10819 -0.37944,-0.92093 -0.97461,-1.80468 -0.8116,-1.17232 -1.15408,-1.87578 -1.3164,-2.61524 -1.06125,-1.70331 -1.32632,-1.36748 -1.55469,-1.90234 -0.29375,-0.29749 -0.65349,-0.34884 -1.04492,-0.45703 -0.65038,-0.99754 -1.49162,-1.8988 -2.01758,-2.90625 -0.59517,-1.15429 -0.75701,-1.67775 -0.86523,-2.83203 -0.1082,-1.19036 -0.18031,-1.44327 -0.54102,-1.67774 -1.15428,-0.73945 -3.21083,-4.7605 -4.29297,-8.34961 -0.93786,-3.15624 -1.20703,-5.80708 -1.20703,-11.79492 0,-6.65517 0.36047,-12.17452 1.00977,-16.30469 0.3066,-1.92982 1.47831,-5.0506 2.79492,-7.52148 1.38875,-2.59713 2.30839,-4.79732 3.625,-8.7832 0.66732,-2.05608 1.44282,-4.14781 1.69531,-4.63477 0.27054,-0.55911 0.56033,-1.58746 0.72266,-2.75977 0.3066,-2.05607 0.55742,-2.5979 1.29687,-2.74218 1.10018,-0.21643 4.56463,-0.63008 6.09766,-0.73828 l 1.62304,-0.10938 2.63282,1.33594 c 2.97588,1.49696 5.19486,2.27109 8.36914,2.90234 3.62517,0.72142 5.42744,0.9028 8.98047,0.88477 4.20231,-0.0361 3.76988,-0.45096 4.83398,4.54492 0.28857,1.38875 0.61295,2.81312 0.70313,3.17383 l 0.18164,0.65039 6.58203,-0.0547 c 9.0539,-0.0542 10.69522,-0.23529 12.93164,-1.35352 0.77553,-0.39677 1.51587,-0.70312 1.66015,-0.70312 0.30661,0 2.00074,2.57859 2.4336,3.71484 0.84768,2.21839 1.24555,7.37769 1.49805,18.97461 0.16232,7.57499 0.16082,11.61513 -0.0195,17.85547 -0.25249,9.25229 -0.34211,10.37023 -1.09961,13.86914 l -0.57617,2.56055 0.63086,0.95703 c 0.70339,1.10018 1.46031,1.89281 1.94727,2.03711 0.43285,0.14428 0.43365,0.16249 -0.10742,1.5332 -0.505,1.28053 -0.56039,2.2194 -0.18164,2.88672 0.39678,0.68536 0.3261,0.99073 -0.28711,1.2793 l -0.57813,0.27148 1.42578,0.59375 c 2.86767,1.20839 4.59861,1.42612 10.027346,1.33594 l 2.291016,-0.0547 -0.632813,-1.46093 c -0.937855,-2.20035 -2.867448,-5.2836 -4.166015,-6.6543 -0.991963,-1.06411 -1.206855,-1.42617 -1.675782,-2.79688 -0.901782,-2.65125 -1.083372,-5.17592 -0.722652,-9.55859 0.10822,-1.19035 0.34262,-3.10203 0.54101,-4.23828 0.324643,-1.92981 0.558555,-2.86851 2.253908,-8.51367 0.721426,-2.48893 0.938975,-3.71389 1.804688,-10.60352 0.991961,-8.02587 1.766922,-11.4349 3.101562,-13.92383 0.450892,-0.82964 1.027836,-1.24456 1.316406,-0.91992 0.432856,0.46892 1.533763,5.9344 2.435547,12.13867 0.847676,5.87963 0.883374,6.07692 1.785157,7.66407 1.20839,2.11017 2.596475,6.78255 3.335937,11.27343 0.198393,1.24447 0.578036,4.18271 0.8125,6.52735 0.504998,4.68927 0.739545,5.50144 1.767578,6.06054 0.306606,0.16232 1.027869,0.64918 1.623047,1.08203 1.208389,0.86572 1.189932,0.79422 0.324219,2.66993 -0.270534,0.6132 -0.720157,1.26301 -0.972657,1.44336 -1.37071,0.95589 -1.569732,1.18894 -1.515624,1.74804 0.03608,0.4509 0.180214,0.5785 0.77539,0.79493 1.514997,0.54107 8.980994,2.39843 9.576172,2.39843 0.883748,0 1.733036,-0.43275 2.09375,-1.08203 0.270535,-0.48696 0.394969,-0.54101 1.224609,-0.54101 0.486963,0 0.902344,-0.0553 0.902344,-0.10938 0,-0.054 -0.180513,-0.81053 -0.378906,-1.6582 -0.468927,-1.92982 -1.027112,-3.13893 -2.037109,-4.4375 -0.432858,-0.55911 -0.883517,-1.37138 -1.009766,-1.82227 -0.270535,-0.93786 -0.523453,-1.18869 -1.677734,-1.60351 -0.955892,-0.36071 -1.06403,-0.50533 -1.388672,-1.91211 -0.12625,-0.54108 -0.811319,-2.21835 -1.550782,-3.69727 -1.839639,-3.76945 -1.966899,-4.34719 -2.886718,-13.52734 -0.432856,-4.20231 -0.486452,-5.62672 -0.558594,-13.79688 -0.03608,-5.17624 0.03541,-13.70805 0.179687,-19.75 l 0.253907,-10.64062 1.36914,-3.73242 c 1.965888,-5.32053 2.380806,-7.16044 2.921875,-12.76954 0.439381,-7.74874 0.684183,-16.4782 -1.910156,-22.79687 -0.180357,-0.41482 -0.487154,-0.97406 -0.685547,-1.22656 l -0.378906,-0.46875 0.541016,-3.1211 c 0.919818,-5.26641 1.550072,-7.23255 3.425781,-10.46093 1.244461,-2.12821 4.238487,-4.83268 6.078125,-5.5 0.378748,-0.12625 1.262948,-0.23392 1.984375,-0.25196 h 1.298828 l 0.523437,1.65821 c 0.288572,0.91981 0.810125,2.70579 1.134766,3.98632 l 1.011029,2.33521 1.190143,1.34448 c 0.883748,0.7575 1.713593,1.53162 1.839844,1.74805 0.126249,0.21643 0.738349,2.02148 1.351562,4.02344 0.518598,1.72618 0.811672,2.73492 0.886719,3.4375 0.390524,1.14314 0.670556,2.83107 1.332031,4.02929 0.07214,-0.018 0.126953,0.37827 0.126953,0.86524 v 0.88281 c -0.142011,0.76012 0.286981,1.93351 0.46875,2.7832 0.748533,2.32667 0.978993,2.25792 1.244141,2.93946 l 4.515625,0.78125 c 0.157842,-0.12653 0.362255,-0.22722 0.625,-0.33594 0.432856,-0.18036 0.630259,-0.14334 1.423828,0.27148 0.883748,0.43286 0.992536,0.44989 2.056641,0.26953 1.62321,-0.3066 2.020883,-0.48585 2.814453,-1.35156 0.559105,-0.59518 0.757724,-1.02757 0.992187,-2.01953 0.396785,-1.80357 0.648438,-5.93513 0.648438,-11.41797 0.01804,-4.85159 0.19788,-7.88029 0.558594,-8.98047 0.108213,-0.32464 0.99287,-1.49794 1.966796,-2.58008 l 1.767578,-1.98437 0.07227,-2.65039 c 0.05411,-1.91178 0.162478,-2.84898 0.378906,-3.33594 0.162321,-0.39678 0.467624,-1.89504 0.666016,-3.33789 0.847676,-6.096058 0.849112,-6.113945 2.5625,-7.935548 1.388746,-1.46089 2.306641,-2.812904 2.306641,-3.335938 0,-0.324642 -0.106379,-0.343046 -2.072266,-0.216797 -1.334639,0.07214 -2.164308,0.05353 -2.308594,-0.05469 -0.234463,-0.198392 -1.406681,-0.432379 -4.238281,-0.865234 -1.803567,-0.270536 -1.966628,-0.325005 -5.591797,-2.21875 -9.504796,-4.977845 -12.04864,-5.735024 -21.679687,-6.402344 -2.128208,-0.162322 -4.36335,-0.325257 -4.976563,-0.361328 -0.721427,-0.05411 -1.24567,0.0017 -1.570312,0.164062 -0.378749,0.180357 -0.594945,0.197472 -1.009766,0.03516 -0.739462,-0.270534 -2.560288,0.05458 -6.419922,1.136719 -8.927655,2.543029 -15.38429,5.519096 -21.408207,9.847656 -2.95785,2.128208 -7.66533,6.149155 -8.69336,7.429688 -0.52303,0.66732 -1.75068,2.218884 -2.72461,3.445314 -1.38874,1.76749 -1.78391,2.18173 -1.91015,1.94726 -0.0902,-0.14428 -0.45225,-1.31517 -0.79493,-2.5957 -0.34267,-1.262496 -0.88284,-3.048929 -1.18945,-3.968749 -0.54107,-1.659281 -0.5419,-1.658361 -0.19922,-2.03711 0.36071,-0.378749 0.57813,-1.118997 0.57813,-1.894531 0,-0.270535 -0.2888,-0.595068 -0.99219,-1.082031 -1.37071,-0.937854 -1.44354,-1.11882 -0.97461,-2.363281 0.43286,-1.118211 0.99146,-1.766909 1.71289,-1.947266 1.71339,-0.432856 1.7682,-1.462112 0.12695,-2.724609 -1.64124,-1.24446 -2.77794,-0.757415 -3.98633,1.767578 -0.39678,0.811605 -1.00888,1.751071 -1.35156,2.09375 -0.57714,0.541069 -0.90292,0.666752 -2.95898,1.099609 -3.02999,0.649284 -5.06711,0.991484 -5.19336,0.865235 -0.0541,-0.05411 0.0536,-0.702401 0.25195,-1.423828 0.77554,-2.885707 1.17337,-6.205702 1.19141,-9.722657 0,-1.839638 -0.0544,-4.074778 -0.14453,-4.976562 l -0.12696,-1.642578 4.45508,-1.207032 c 6.6732,-1.821601 8.47686,-2.382211 10.08203,-3.175781 1.28054,-0.631247 1.60594,-0.720703 2.74219,-0.720703 0.70339,0 1.49509,-0.08951 1.76563,-0.179687 0.70339,-0.270536 6.60163,-4.725382 7.21484,-5.464844 0.48696,-0.577142 0.66687,-0.650336 3.173832,-1.191406 3.426776,-0.739463 4.72691,-1.171732 5.791015,-1.947266 l 0.847656,-0.63086 v -2.542968 c 0.01803,-1.587139 0.108131,-2.7598 0.234375,-3.066406 0.144286,-0.342678 0.539713,-0.667547 1.207032,-0.992188 0.91982,-0.450892 1.0098,-0.559153 1.316406,-1.460938 0.180355,-0.523034 0.28952,-0.974152 0.271484,-0.992187 -0.16232,-0.108219 -6.294055,0.307468 -7.791015,0.505859 -1.46089,0.216428 -2.056321,0.395639 -3.300782,1.044922 -0.829643,0.414821 -2.055343,1.209388 -2.722663,1.732422 -2.14624,1.731425 -3.84213,2.380293 -8.91015,3.480469 -1.91178,0.396785 -3.53528,0.775971 -3.60743,0.830078 -0.0902,0.03608 -0.14453,0.341831 -0.14453,0.648437 0,0.811606 -0.43299,1.35239 -1.22656,1.550782 -1.35267,0.360713 -9.36021,1.803895 -10.71289,1.912109 -0.93785,0.09018 -2.39947,0.01916 -4.4375,-0.197265 l -3.04687,-0.326172 -0.12696,-1.351563 c -0.0541,-0.739462 -0.10742,-1.966654 -0.10742,-2.742187 0,-1.388748 0.0175,-1.424423 0.86523,-2.632813 l 0.84766,-1.226562 0.0898,0.974609 c 0.0902,0.901784 0.12748,0.97452 0.72266,1.208984 0.34268,0.12625 1.56883,0.594488 2.70508,1.027344 1.58714,0.613213 2.50682,0.846987 3.93164,1.027344 2.16428,0.234464 2.38086,0.162676 2.38086,-0.9375 0,-1.118211 -0.41469,-1.838977 -1.92969,-3.335938 -2.90374,-2.867671 -3.5725,-5.574521 -2.5625,-10.335937 0.12625,-0.66732 0.7768,-2.380437 1.0293,-2.705078 0.018,-0.03608 0.45099,0.344153 0.91992,0.867187 0.52303,0.559106 1.00968,0.9375 1.24414,0.9375 0.48696,0 0.79221,0.576589 1.20703,2.253906 0.16232,0.685357 0.41626,1.53278 0.56055,1.857422 0.34268,0.829641 1.35135,2.074888 1.51367,1.894532 0.0902,-0.07214 1.04631,-2.075285 2.14649,-4.419922 1.83963,-3.91374 2.00195,-4.364421 2.00195,-5.320313 0,-0.667318 -0.10721,-1.208438 -0.26953,-1.460937 -0.16232,-0.216429 -0.55967,-1.461197 -0.90235,-2.759766 -0.68535,-2.633207 -0.90174,-3.065526 -1.69531,-3.408203 -0.64928,-0.252499 -0.93857,-1.064727 -1.28125,-3.517578 -0.19839,-1.334639 -0.26926,-1.496408 -0.97266,-2.253906 -0.43285,-0.450892 -1.20789,-1.515148 -1.71289,-2.38086 -0.52303,-0.883747 -1.22763,-1.875615 -1.57031,-2.236328 -0.45089,-0.486963 -0.61328,-0.828863 -0.61328,-1.261719 0,-0.879238 -0.42521,-1.282123 -1.49805,-1.30664 z m 0.32618,82.232422 c 0.10822,-0.01803 1.24485,0.109168 2.52539,0.271484 l 2.34375,0.287109 1.26367,1.208981 c 0.70339,0.64929 1.76764,1.64207 2.38086,2.20118 0.99196,0.90178 1.11801,1.11729 1.3164,2.0371 0.10822,0.57715 0.18061,1.06354 0.14454,1.09961 -0.018,0.0361 -0.97405,-0.45078 -2.07422,-1.08203 -1.11821,-0.61321 -2.61497,-1.31677 -3.31836,-1.5332 -1.11822,-0.36071 -1.47997,-0.39532 -3.19336,-0.28711 -1.06411,0.0541 -2.14594,0.16074 -2.39844,0.21484 -0.45089,0.0902 -0.46936,0.0544 -0.83008,-1.55078 l -0.36133,-1.64062 0.56055,-0.4336 c 0.55911,-0.414817 1.27991,-0.774928 1.64063,-0.792964 z"
       transform="matrix(0.81242292,0,0,0.81242292,27.347238,-14.24373)"
       id="path1125"
       inkscape:connector-curvature="0"
       sodipodi:nodetypes="cccccccccccccccccscccccscccccsccccccccccccccccccccccccsccsccccccccccccccccccccccccccccccccccccscccccsccccccccccccccccsccccccccccccccccscccccccccccccccccccccccccccccccccssssccccccccccccccccccccccccccccscccccccccccccccccsccccccccccccccccsccccccccccccccscccccccccccccccscccccsccccccsccccsccccscccccccsccccccccccccccccc" />
    <path
       sodipodi:nodetypes="cccccccssccccccccccc"
       inkscape:transform-center-y="-16.96225"
       inkscape:transform-center-x="-5.2260582"
       inkscape:connector-curvature="0"
       style="fill:#ffffff;fill-opacity:1;fill-rule:evenodd;stroke:none;stroke-width:0.34032488px;stroke-linecap:butt;stroke-linejoin:miter;stroke-opacity:1"
       d="m -47.959833,23.679856 c -0.557752,-0.387241 -1.177341,-0.752876 -1.869498,-1.089348 l -0.816065,1.67935 c 0.52622,0.255758 0.995158,0.522484 1.416082,0.79707 -4.778522,5.082206 -7.46017,7.247 -7.46017,7.247 l 0.02625,0.0351 -0.151182,0.08457 c 2.014784,2.698508 2.745076,3.505431 4.833308,3.580361 2.349164,0.08429 1.697612,0.462063 4.478659,-1.802347 1.679917,-1.367838 2.525635,-1.910947 2.798931,-4.883916 -0.218806,-1.099327 -0.374991,-2.798693 -1.213712,-3.806366 11.73678,-17.5929179 15.881295,-30.0494074 16.519416,-39.545834 -7.282443,18.6919582 -8.281597,22.8676256 -18.562018,37.704355 z m 0.798642,3.251091 c 0.538414,0.711572 1.049947,1.871734 1.190793,2.579397 -0.417142,2.352064 -1.781814,2.661207 -2.978706,3.649429 -1.941892,1.566915 -0.942907,1.078841 -2.643985,1.250678 -1.021497,-0.06317 -1.074358,0.09323 -2.062974,-0.851786 2.115996,-1.562001 3.627406,-3.465595 6.494875,-6.627719 z"
       id="path6119-9" />
  </g>
  <g
     id="g5079">
    <path
       d="m -82.001411,-137.01378 c -0.74503,-1.20249 -1.61121,-2.4286 -2.62182,-3.676 l -2.431208,2.05738 c 0.768353,0.94826 1.429906,1.85925 2.002718,2.73673 -11.297258,4.98957 -16.578599,6.5582 -16.578599,6.5582 0.65011,3.35768 2.731649,7.86727 5.225092,9.35935 6.727942,6.18759 20.959547,2.95763 18.558867,-11.28497 19.20043,-10.20708 42.86555,-30.86535 50.075961,-41.02399 3.02451,-4.26119 4.16253,-6.92397 4.78074,-14.97859 -26.828281,29.68049 -39.589301,38.48452 -59.011731,50.25188 z m -12.76716,14.68942 c -1.750275,-1.1044 -1.936192,-0.89021 -3.102337,-3.46113 4.636499,-0.58913 9.918735,-1.39794 16.215917,-4.98981 3.99429,11.64655 -8.737075,13.6496 -13.11358,8.45094 z"
       id="path2"
       style="fill:#ffffff;stroke:none;stroke-width:1.48846292"
       inkscape:connector-curvature="0" />
    <path
       style="fill:#ffffff;stroke:none;stroke-width:1.48846292"
       d="m -131.85938,-154.59785 c 0.47948,-8.62107 -7.51376,-12.94013 -17.89981,-10.59993 -14.7019,5.04167 -7.65469,18.5756 -5.3736,25.25004 1.40915,5.20357 1.37448,5.69945 1.27006,10.65569 -3.79596,1.11188 -8.04747,2.29433 -10.52388,3.49812 -10.53023,17.89472 -2.34056,23.21622 -2.19206,45.993168 -0.93452,6.39501 -3.94487,12.7752 -5.7558,17.9736 -2.47903,0.21233 -10.00293,-1.34509 -13.15614,-1.45273 v 57.5464298 h 122.880069 c 1.68447,-11.7804398 2.23885,-17.8496098 -2.72084,-38.3916898 1.5272,-10.92001 0.82499,-23.88739 16.88006,-24.48519 1.45287,7.07055 1.41267,8.57168 7.21543,14.02226 2.25713,4.53408 1.85805,8.45686 4.52291,14.55127 -0.10275,2.85204 -0.16839,4.23974 2.32877,9.45917 l 5.718021,0.98961 c 1.13025,-1.17681 1.26224,-0.58256 1.98866,-0.32357 3.44168,2.0196 7.94523,0.14271 8.03262,-3.68448 0.50248,-2.28394 0.81956,-7.51594 0.81956,-14.45917 0.0228,-6.14384 0.25175,-13.89755 0.70855,-15.29078 1.43081,-2.24581 2.90262,-3.73206 4.72841,-5.78178 0.904479,-6.60052 1.048829,-20.271342 4.6598994,-24.275007 1.96203,-1.443225 4.16736,-2.69622 4.42159,-4.222965 -1.61433,-0.879833 -4.39372,-0.225533 -7.0479504,-0.344835 -6.445909,-0.552128 -9.341029,-2.284481 -12.449259,-3.906481 -16.044941,-7.36955 -17.220481,-11.42753 -40.316581,-6.87295 -20.49654,5.23374 -35.839892,21.288446 -48.823929,35.045198 -3.17814,-9.36963 -4.21072,-9.82359 -2.76571,-10.8928 0.45679,-0.47963 0.73218,-1.41752 0.73218,-2.39963 -2.37941,-2.871455 -4.01452,-4.221882 -0.32123,-6.828072 4.51503,-1.48887 -3.68275,-6.969036 -4.88899,-1.211625 -1.49102,5.08803 -4.83205,3.76551 -12.03357,5.139352 2.62574,-8.75769 2.22553,-16.152773 1.48324,-22.496503 6.46949,-1.16088 13.60994,2.51134 19.06475,-0.13935 4.00612,-1.69726 3.46829,-0.82152 5.70855,-1.14077 0.89075,-0.34259 8.359059,-5.98377 9.135594,-6.92019 0.616665,-0.73086 0.845153,-0.82402 4.01985,-1.50921 4.339523,-0.93642 5.985983,-1.48366 7.333505,-2.46576 1.73881,-3.1751 1.00779,-5.10158 1.36988,-7.90271 0.84605,-4.44633 -1.59578,-4.32922 -6.325007,-3.72226 -1.85001,0.27407 -2.604533,0.50041 -4.180455,1.32263 -1.05063,0.52531 -2.60322,1.5318 -3.44829,2.19415 -6.055747,3.95471 -6.619567,3.08022 -15.852647,5.45821 -0.14483,1.39752 -0.87822,2.19003 -1.73596,2.78697 -1.71295,0.45679 -12.50764,-3.12713 -14.22061,-2.99009 -3.54274,0.0801 -5.87706,-0.27819 -9.47807,-0.66368 -0.1037,-2.05189 -1.36282,-7.72482 1.33125,-7.88774 3.40628,0.22386 7.0111,0.92424 6.8149,-2.45383 0.40998,-3.62018 -0.29373,-2.14432 0.49338,-6.65233 5.19957,-0.4736 2.94947,-1.05021 -2.1513,-9.51776 z m 8.859,76.211848 c 4.66861,4.07265 6.06761,4.91349 6.46436,8.29005 -5.72759,-3.68724 -7.28273,-4.47537 -13.91124,-3.4034 -1.31219,-0.96807 -1.05517,-1.99023 -1.50684,-4.04112 2.05529,-2.83611 6.12695,-1.17453 8.95372,-0.84553 z"
       id="path4"
       inkscape:connector-curvature="0" />
    <path
       id="path4495"
       d="m -136.03118,-165.5503 c 3.27061,1.60578 3.45876,3.45589 5.03061,6.88433 2.06494,1.81484 3.09382,1.55062 5.70835,3.23705 -6.39879,5.37281 -17.30345,5.24924 -22.78283,7.44236 1.10428,2.6284 -2.81637,3.71372 0.70051,11.41134 -2.38905,1.28776 -10.56284,3.48329 -12.94336,3.79259 -4.8072,0.63379 -2.43127,-1.60179 -0.20471,-4.59782 2.30392,-2.79105 2.66882,-4.26312 0.95136,-12.35717 -2.65782,-11.10217 12.97039,-20.1697 23.54007,-15.81268 z"
       style="opacity:1;fill:#ffffff;stroke:none;stroke-width:1.35593867"
       inkscape:connector-curvature="0" />
    <path
       style="fill:#ffffff;stroke:none;stroke-width:0.69129419px;stroke-linecap:butt;stroke-linejoin:miter;stroke-opacity:1"
       d="m -145.64258,-165.73485 -0.74988,-8.34239 -6.93637,-9.46722 -0.0937,11.90432 3.54066,7.25592 z"
       id="path4493"
       inkscape:connector-curvature="0" />
    <path
       style="fill:#ffffff;stroke:none;stroke-width:0.75px;stroke-linecap:butt;stroke-linejoin:miter;stroke-opacity:1"
       d="m -137.45491,-165.65199 -1.02726,-7.22304 c 0,0 6.61711,0.30147 6.96284,-6.06504 0.25305,-4.65979 -2.40935,-7.00046 -7.78364,-7.66873 -10.5969,-1.31769 -25.32348,1.98579 -27.75817,23.60789 -1.67962,10.63488 1.83961,16.19871 9.7592,25.8175 l 13.98003,-15.6387 z"
       id="path4527"
       inkscape:connector-curvature="0" />
  </g>
  <g
     id="g5686">
    <path
       inkscape:connector-curvature="0"
       style="fill:#ffffff;stroke:none;stroke-width:1.53261209"
       d="m -304.38217,-165.87766 c -1.83294,0.005 -3.55112,0.32533 -4.94824,1.09131 -4.06535,2.55266 -4.73046,4.78779 -5.81689,10.43261 0.0662,5.52903 0.51655,11.21266 3.30908,15.88916 1.80642,0.10412 1.63466,4.68851 -1.15576,4.69922 l -1.33448,5.0083 c -4.67521,1.40811 -9.57466,2.28298 -13.02832,3.55811 -1.36505,3.52677 -2.38006,5.34662 -3.9873,8.84472 -4.06201,7.06852 -7.04657,15.50311 -10.68311,21.745607 -7.96884,16.445965 -2.2027,14.316225 12.91846,31.303705 1.13452,0.56726 1.33255,1.28489 2.16797,3.2754 -0.36456,10.859771 -3.02689,18.517621 -1.47217,23.871091 0.75635,-0.28361 1.13379,1.13508 1.13379,4.822259 -1.83005,18.32418 -1.06338,19.6236 -0.95215,27.9975602 h 21.15528 c 0.445,-2.66792 0.77974,-5.07405 0.97411,-7.0327202 1.13453,-10.68339 4.53834,-15.9065 6.42921,-14.01561 3.1005,8.57172 2.81114,12.63141 5.52831,21.0483302 h 22.38868 c 0.9786,-15.6575602 -1.05711,-26.7026302 -2.76855,-34.9218792 l -0.28272,-7.46923 c 9.60111,-0.9758 9.70795,-6.077431 8.98096,-12.101071 -0.15537,-6.39684 -2.75317,-9.65701 -4.72705,-11.15625 5.64792,-1.04491 12.27687,-10.16391 8.8872,-15.22119 -0.56727,-0.75634 -1.5135,-2.83698 -2.17529,-4.6333 -2.57439,-8.279363 -3.12325,-11.941672 -5.32177,-21.045412 -2.76887,-6.86539 -6.31944,-12.97067 -8.5752,-16.99658 -2.98044,-2.16009 -12.82503,-0.31225 -14.06982,-3.49804 -0.94542,-2.74176 -1.5306,-4.69227 -2.94874,-4.12501 -0.85091,0.28363 -1.32275,-0.18823 -1.32275,-1.32275 0,-2.36358 -0.33808,-3.23911 0.76757,-4.99805 2.43591,-2.10758 2.71225,-5.77378 3.09376,-9.67822 0.60528,-6.01113 -2.12612,-11.50197 -4.96729,-14.10938 -2.29418,-0.75634 -4.84014,-1.26955 -7.19678,-1.26269 z m -20.56787,75.606442 c 0.20615,-0.0187 0.38275,0.0412 0.50684,0.20068 0.37817,0.47272 1.13557,2.64777 1.79736,4.82227 1.03997,3.68719 1.14064,8.35766 -0.37207,9.49219 -2.72909,0.51028 -8.61003,-6.8451 -5.6792,-9.30323 0.75636,-0.6618 1.41797,-1.70178 1.41797,-2.26904 0,-1.30588 1.4358,-2.86185 2.3291,-2.94287 z m 46.59668,14.85497 c 0.49635,-0.0472 1.27662,0.70908 2.41114,2.26905 1.41812,1.89087 1.51298,2.64771 0.6621,3.78222 -1.70178,1.89087 -3.78222,6e-5 -3.78222,-3.49804 0,-1.6545 0.21263,-2.50595 0.70898,-2.55323 z"
       id="node1-7-2" />
    <path
       inkscape:connector-curvature="0"
       style="opacity:1;fill:#ffffff;fill-opacity:1;stroke:none;stroke-width:1.71428561"
       d="m -318.9904,-178.08933 c 10.40019,-2.16407 20.22329,-2.30834 30.76776,0 l -2.73401,22.60526 h -25.29974 z"
       id="rect1260-7" />
    <ellipse
       style="opacity:1;fill:#ffffff;fill-opacity:1;stroke:none;stroke-width:2.27990675"
       id="path1263-1"
       cx="-303.22812"
       cy="-184.18089"
       rx="4.4558463"
       ry="7.6009579" />
    <path
       id="rect1270-4"
       d="m -251.84367,-131.4094 49.89629,-49.53273 0.063,6.60459 -45.25859,47.97707 z"
       style="opacity:1;fill:#ffffff;fill-opacity:1;stroke:none;stroke-width:1.89938498"
       inkscape:connector-curvature="0" />
    <path
       style="fill:#ffffff;stroke:none;stroke-width:0.81904578px;stroke-linecap:butt;stroke-linejoin:miter;stroke-opacity:1"
       d="m -239.72722,-142.07847 -4.72845,-3.8523 -83.9793,82.689852 -3.74199,7.96859 -28.08856,22.897141 c 0,0 4.50778,19.047159 9.99009,20.136419 2.74975,-1.78716 16.97373,-29.121629 16.97373,-29.121629 0,0 7.17604,-2.20022 15.71905,-11.149131 1.90192,-1.9923 -1.08935,-8.19101 -1.08935,-8.19101 z"
       id="path4516"
       inkscape:connector-curvature="0" />
  </g>
  <path
     sodipodi:type="star"
     style="display:inline;opacity:1;fill:#819f9c;fill-opacity:1;stroke:#cccccc;stroke-width:7.81242609;stroke-miterlimit:4;stroke-dasharray:none"
     id="path10711"
     sodipodi:sides="6"
     sodipodi:cx="430.10959"
     sodipodi:cy="64.910593"
     sodipodi:r1="192.85278"
     sodipodi:r2="167.01543"
     sodipodi:arg1="0"
     sodipodi:arg2="0.52359878"
     inkscape:flatsided="true"
     inkscape:rounded="0"
     inkscape:randomized="0"
     d="M 622.96237,64.910591 526.53598,231.926 l -192.85278,0 -96.42639,-167.015409 96.42639,-167.015411 192.85278,0 z" />
  <path
     d="m 912.24146,-102.1048 -96.4264,167.015412 -192.85278,0 -96.42639,-167.015412 96.42639,-167.01541 192.85278,0 z"
     inkscape:randomized="0"
     inkscape:rounded="0"
     inkscape:flatsided="true"
     sodipodi:arg2="0.52359878"
     sodipodi:arg1="0"
     sodipodi:r2="167.01543"
     sodipodi:r1="192.85278"
     sodipodi:cy="-102.1048"
     sodipodi:cx="719.38869"
     sodipodi:sides="6"
     id="path10713"
     style="display:inline;opacity:1;fill:#819f9c;fill-opacity:1;stroke:#cccccc;stroke-width:7.81242609;stroke-miterlimit:4;stroke-dasharray:none"
     sodipodi:type="star" />
  <path
     sodipodi:type="star"
     style="display:inline;opacity:1;fill:#c0d6ac;fill-opacity:1;stroke:#cccccc;stroke-width:7.81242609;stroke-miterlimit:4;stroke-dasharray:none"
     id="path6819"
     sodipodi:sides="6"
     sodipodi:cx="719.38887"
     sodipodi:cy="231.92598"
     sodipodi:r1="192.85278"
     sodipodi:r2="167.01543"
     sodipodi:arg1="0"
     sodipodi:arg2="0.52359878"
     inkscape:flatsided="true"
     inkscape:rounded="0"
     inkscape:randomized="0"
     d="M 912.24164,231.92598 815.81525,398.94139 H 622.96246 l -96.42639,-167.01541 96.42639,-167.01541 192.85279,0 z" />
  <g
     transform="matrix(7.8124261,0,0,7.8124261,-2699.5319,-7708.0101)"
     style="display:inline"
     id="g1409">
    <path
       sodipodi:nodetypes="ccccccccccccc"
       inkscape:connector-curvature="0"
       style="color:#000000;font-style:normal;font-variant:normal;font-weight:normal;font-stretch:normal;font-size:medium;line-height:normal;font-family:sans-serif;font-variant-ligatures:normal;font-variant-position:normal;font-variant-caps:normal;font-variant-numeric:normal;font-variant-alternates:normal;font-feature-settings:normal;text-indent:0;text-align:start;text-decoration:none;text-decoration-line:none;text-decoration-style:solid;text-decoration-color:#000000;letter-spacing:normal;word-spacing:normal;text-transform:none;writing-mode:lr-tb;direction:ltr;text-orientation:mixed;dominant-baseline:auto;baseline-shift:baseline;text-anchor:start;white-space:normal;shape-padding:0;clip-rule:nonzero;display:inline;overflow:visible;visibility:visible;opacity:0.5;isolation:auto;mix-blend-mode:normal;color-interpolation:sRGB;color-interpolation-filters:linearRGB;solid-color:#000000;solid-opacity:1;vector-effect:none;fill:#000000;fill-opacity:1;fill-rule:nonzero;stroke:none;stroke-width:4;stroke-linecap:round;stroke-linejoin:round;stroke-miterlimit:4;stroke-dasharray:none;stroke-dashoffset:0;stroke-opacity:1;filter:url(#filter1403);color-rendering:auto;image-rendering:auto;shape-rendering:auto;text-rendering:auto;enable-background:accumulate"
       d="m 420.02154,974.37773 c -1.52075,0.0508 -2.43011,1.71369 -1.65234,3.02149 l 5.31445,9.2793 c 0.35656,0.62235 1.01907,1.00614 1.73633,1.00586 h 26.50781 c 0.71206,-9e-5 1.37037,-0.37872 1.72852,-0.99415 l 5.39844,-9.27929 c 0.79649,-1.3238 -0.14463,-3.01238 -1.68946,-3.03125 -0.73127,-0.009 -1.40907,0.38211 -1.76757,1.01953 l -2.49219,4.28516 h -28.81836 l -2.44727,-4.27344 c -0.36345,-0.65909 -1.06612,-1.05835 -1.81836,-1.03321 z"
       id="path1269" />
    <path
       sodipodi:nodetypes="ccccccccccccc"
       inkscape:connector-curvature="0"
       id="rect1241"
       transform="translate(0,697.36218)"
       d="m 419.02148,275.01562 c -1.52075,0.0508 -2.43011,1.71369 -1.65234,3.02149 l 5.31445,9.2793 c 0.35656,0.62235 1.01907,1.00614 1.73633,1.00586 h 26.50781 c 0.71206,-9e-5 1.37037,-0.37872 1.72852,-0.99415 l 5.39844,-9.27929 c 0.79649,-1.3238 -0.14463,-3.01238 -1.68946,-3.03125 -0.73127,-0.009 -1.40907,0.38211 -1.76757,1.01953 l -2.49219,4.28516 h -28.81836 l -2.44727,-4.27344 c -0.36345,-0.65909 -1.06612,-1.05835 -1.81836,-1.03321 z"
       style="color:#000000;font-style:normal;font-variant:normal;font-weight:normal;font-stretch:normal;font-size:medium;line-height:normal;font-family:sans-serif;font-variant-ligatures:normal;font-variant-position:normal;font-variant-caps:normal;font-variant-numeric:normal;font-variant-alternates:normal;font-feature-settings:normal;text-indent:0;text-align:start;text-decoration:none;text-decoration-line:none;text-decoration-style:solid;text-decoration-color:#000000;letter-spacing:normal;word-spacing:normal;text-transform:none;writing-mode:lr-tb;direction:ltr;text-orientation:mixed;dominant-baseline:auto;baseline-shift:baseline;text-anchor:start;white-space:normal;shape-padding:0;clip-rule:nonzero;display:inline;overflow:visible;visibility:visible;opacity:1;isolation:auto;mix-blend-mode:normal;color-interpolation:sRGB;color-interpolation-filters:linearRGB;solid-color:#000000;solid-opacity:1;vector-effect:none;fill:#0000ff;fill-opacity:1;fill-rule:nonzero;stroke:none;stroke-width:4;stroke-linecap:round;stroke-linejoin:round;stroke-miterlimit:4;stroke-dasharray:none;stroke-dashoffset:0;stroke-opacity:1;color-rendering:auto;image-rendering:auto;shape-rendering:auto;text-rendering:auto;enable-background:accumulate" />
  </g>
  <g
     style="display:inline"
     id="g1415"
     transform="matrix(7.8124261,0,0,7.8124261,-2989.7547,-7528.542)">
    <path
       id="path6274"
       transform="matrix(0.09600091,0,0,0.09600091,382.88422,964.43052)"
       d="m 374.84766,118.06055 41.72461,72.85547 c 3.71413,6.48275 10.6165,10.47947 18.08789,10.47656 H 710.7793 c 7.41722,-9.4e-4 14.27516,-3.9448 18.00586,-10.35547 l 42.45507,-72.97656 h -48.19335 -300.1875 z"
       style="color:#000000;font-style:normal;font-variant:normal;font-weight:normal;font-stretch:normal;font-size:medium;line-height:normal;font-family:sans-serif;font-variant-ligatures:normal;font-variant-position:normal;font-variant-caps:normal;font-variant-numeric:normal;font-variant-alternates:normal;font-feature-settings:normal;text-indent:0;text-align:start;text-decoration:none;text-decoration-line:none;text-decoration-style:solid;text-decoration-color:#000000;letter-spacing:normal;word-spacing:normal;text-transform:none;writing-mode:lr-tb;direction:ltr;text-orientation:mixed;dominant-baseline:auto;baseline-shift:baseline;text-anchor:start;white-space:normal;shape-padding:0;clip-rule:nonzero;display:inline;overflow:visible;visibility:visible;opacity:0.5;isolation:auto;mix-blend-mode:normal;color-interpolation:sRGB;color-interpolation-filters:linearRGB;solid-color:#000000;solid-opacity:1;vector-effect:none;fill:#000000;fill-opacity:1;fill-rule:nonzero;stroke:none;stroke-width:41.66627121;stroke-linecap:round;stroke-linejoin:round;stroke-miterlimit:4;stroke-dasharray:none;stroke-dashoffset:0;stroke-opacity:1;filter:url(#filter6288);color-rendering:auto;image-rendering:auto;shape-rendering:auto;text-rendering:auto;enable-background:accumulate"
       inkscape:connector-curvature="0" />
    <path
       style="color:#000000;font-style:normal;font-variant:normal;font-weight:normal;font-stretch:normal;font-size:medium;line-height:normal;font-family:sans-serif;font-variant-ligatures:normal;font-variant-position:normal;font-variant-caps:normal;font-variant-numeric:normal;font-variant-alternates:normal;font-feature-settings:normal;text-indent:0;text-align:start;text-decoration:none;text-decoration-line:none;text-decoration-style:solid;text-decoration-color:#000000;letter-spacing:normal;word-spacing:normal;text-transform:none;writing-mode:lr-tb;direction:ltr;text-orientation:mixed;dominant-baseline:auto;baseline-shift:baseline;text-anchor:start;white-space:normal;shape-padding:0;clip-rule:nonzero;display:inline;overflow:visible;visibility:visible;opacity:1;isolation:auto;mix-blend-mode:normal;color-interpolation:sRGB;color-interpolation-filters:linearRGB;solid-color:#000000;solid-opacity:1;vector-effect:none;fill:#ff0000;fill-opacity:1;fill-rule:nonzero;stroke:none;stroke-width:4;stroke-linecap:round;stroke-linejoin:round;stroke-miterlimit:4;stroke-dasharray:none;stroke-dashoffset:0;stroke-opacity:1;color-rendering:auto;image-rendering:auto;shape-rendering:auto;text-rendering:auto;enable-background:accumulate"
       d="m 418.10193,974.61244 4.00561,6.99419 c 0.35656,0.62235 1.01919,1.00604 1.73645,1.00576 h 26.50769 c 0.71206,-9e-5 1.37043,-0.3787 1.72858,-0.99413 l 4.07572,-7.00582 h -4.6266 -28.81828 z"
       id="path1413"
       inkscape:connector-curvature="0" />
  </g>
  <g
     style="display:inline"
     transform="matrix(3.906213,0,0,3.906213,-613.67011,-4364.5478)"
     id="g1252">
    <rect
       style="opacity:0.5;fill:#000000;fill-opacity:1;stroke:none;stroke-width:0.92083335;stroke-linecap:round;stroke-linejoin:miter;stroke-miterlimit:4;stroke-dasharray:none;filter:url(#filter4857)"
       id="rect1244"
       width="24.563492"
       height="24.563492"
       x="316.19904"
       y="1071.0474" />
    <rect
       y="1069.0474"
       x="314.19904"
       height="24.563492"
       width="24.563492"
       id="rect1246"
       style="opacity:1;fill:#0000ff;fill-opacity:1;stroke:none;stroke-width:0.92083335;stroke-linecap:round;stroke-linejoin:miter;stroke-miterlimit:4;stroke-dasharray:none" />
    <path
       inkscape:connector-curvature="0"
       id="path1248"
       transform="translate(0,702.36218)"
       d="m 335.93359,366.68555 -21.73437,21.73633 v 2.82617 h 2.83008 l 21.73242,-21.73438 v -2.82812 z"
       style="color:#000000;font-style:normal;font-variant:normal;font-weight:normal;font-stretch:normal;font-size:medium;line-height:normal;font-family:sans-serif;font-variant-ligatures:normal;font-variant-position:normal;font-variant-caps:normal;font-variant-numeric:normal;font-variant-alternates:normal;font-feature-settings:normal;text-indent:0;text-align:start;text-decoration:none;text-decoration-line:none;text-decoration-style:solid;text-decoration-color:#000000;letter-spacing:normal;word-spacing:normal;text-transform:none;writing-mode:lr-tb;direction:ltr;text-orientation:mixed;dominant-baseline:auto;baseline-shift:baseline;text-anchor:start;white-space:normal;shape-padding:0;clip-rule:nonzero;display:inline;overflow:visible;visibility:visible;opacity:1;isolation:auto;mix-blend-mode:normal;color-interpolation:sRGB;color-interpolation-filters:linearRGB;solid-color:#000000;solid-opacity:1;vector-effect:none;fill:#ffffff;fill-opacity:1;fill-rule:nonzero;stroke:none;stroke-width:4;stroke-linecap:butt;stroke-linejoin:miter;stroke-miterlimit:4;stroke-dasharray:none;stroke-dashoffset:0;stroke-opacity:1;color-rendering:auto;image-rendering:auto;shape-rendering:auto;text-rendering:auto;enable-background:accumulate" />
    <path
       style="color:#000000;font-style:normal;font-variant:normal;font-weight:normal;font-stretch:normal;font-size:medium;line-height:normal;font-family:sans-serif;font-variant-ligatures:normal;font-variant-position:normal;font-variant-caps:normal;font-variant-numeric:normal;font-variant-alternates:normal;font-feature-settings:normal;text-indent:0;text-align:start;text-decoration:none;text-decoration-line:none;text-decoration-style:solid;text-decoration-color:#000000;letter-spacing:normal;word-spacing:normal;text-transform:none;writing-mode:lr-tb;direction:ltr;text-orientation:mixed;dominant-baseline:auto;baseline-shift:baseline;text-anchor:start;white-space:normal;shape-padding:0;clip-rule:nonzero;display:inline;overflow:visible;visibility:visible;opacity:1;isolation:auto;mix-blend-mode:normal;color-interpolation:sRGB;color-interpolation-filters:linearRGB;solid-color:#000000;solid-opacity:1;vector-effect:none;fill:#ffffff;fill-opacity:1;fill-rule:nonzero;stroke:none;stroke-width:4;stroke-linecap:butt;stroke-linejoin:miter;stroke-miterlimit:4;stroke-dasharray:none;stroke-dashoffset:0;stroke-opacity:1;color-rendering:auto;image-rendering:auto;shape-rendering:auto;text-rendering:auto;enable-background:accumulate"
       d="m 317.02735,1069.0477 21.73437,21.7364 v 2.8261 h -2.83008 l -21.73242,-21.7343 v -2.8282 z"
       id="path1250"
       inkscape:connector-curvature="0" />
  </g>
  <g
     style="display:inline"
     id="g1260"
     transform="matrix(3.906213,0,0,3.906213,-499.30829,-4364.5478)">
    <rect
       y="1071.0474"
       x="316.19904"
       height="24.563492"
       width="24.563492"
       id="rect1254"
       style="opacity:0.5;fill:#000000;fill-opacity:1;stroke:none;stroke-width:0.92083335;stroke-linecap:round;stroke-linejoin:miter;stroke-miterlimit:4;stroke-dasharray:none;filter:url(#filter4857)" />
    <rect
       style="opacity:1;fill:#0000ff;fill-opacity:1;stroke:none;stroke-width:0.92083335;stroke-linecap:round;stroke-linejoin:miter;stroke-miterlimit:4;stroke-dasharray:none"
       id="rect1256"
       width="24.563492"
       height="24.563492"
       x="314.19904"
       y="1069.0474" />
    <path
       style="color:#000000;font-style:normal;font-variant:normal;font-weight:normal;font-stretch:normal;font-size:medium;line-height:normal;font-family:sans-serif;font-variant-ligatures:normal;font-variant-position:normal;font-variant-caps:normal;font-variant-numeric:normal;font-variant-alternates:normal;font-feature-settings:normal;text-indent:0;text-align:start;text-decoration:none;text-decoration-line:none;text-decoration-style:solid;text-decoration-color:#000000;letter-spacing:normal;word-spacing:normal;text-transform:none;writing-mode:lr-tb;direction:ltr;text-orientation:mixed;dominant-baseline:auto;baseline-shift:baseline;text-anchor:start;white-space:normal;shape-padding:0;clip-rule:nonzero;display:inline;overflow:visible;visibility:visible;opacity:1;isolation:auto;mix-blend-mode:normal;color-interpolation:sRGB;color-interpolation-filters:linearRGB;solid-color:#000000;solid-opacity:1;vector-effect:none;fill:#ffffff;fill-opacity:1;fill-rule:nonzero;stroke:none;stroke-width:4;stroke-linecap:butt;stroke-linejoin:miter;stroke-miterlimit:4;stroke-dasharray:none;stroke-dashoffset:0;stroke-opacity:1;color-rendering:auto;image-rendering:auto;shape-rendering:auto;text-rendering:auto;enable-background:accumulate"
       d="m 335.93359,366.68555 -21.73437,21.73633 v 2.82617 h 2.83008 l 21.73242,-21.73438 v -2.82812 z"
       transform="translate(0,702.36218)"
       id="path1258"
       inkscape:connector-curvature="0" />
  </g>
  <g
     id="g4981"
     transform="matrix(7.8272715,0,0,7.8272715,-1940.8964,-8929.2362)"
     style="display:inline">
    <rect
       y="1071.0474"
       x="316.19904"
       height="24.563492"
       width="24.563492"
       id="rect4975"
       style="opacity:0.5;fill:#000000;fill-opacity:1;stroke:none;stroke-width:0.92083335;stroke-linecap:round;stroke-linejoin:miter;stroke-miterlimit:4;stroke-dasharray:none;filter:url(#filter4857-0)" />
    <rect
       style="opacity:1;fill:#ff0000;fill-opacity:1;stroke:none;stroke-width:0.92083335;stroke-linecap:round;stroke-linejoin:miter;stroke-miterlimit:4;stroke-dasharray:none"
       id="rect4977"
       width="24.563492"
       height="24.563492"
       x="314.19904"
       y="1069.0474" />
    <ellipse
       ry="4.6181583"
       rx="4.6182566"
       cy="1081.3291"
       cx="326.48077"
       id="ellipse4979"
       style="opacity:1;fill:#ffffff;fill-opacity:1;stroke:none;stroke-width:9.23650551;stroke-linecap:round;stroke-linejoin:miter;stroke-miterlimit:4;stroke-dasharray:none" />
  </g>
  <g
     transform="matrix(7.8272715,0,0,7.8272715,-2471.1143,-8929.2362)"
     id="g4991"
     style="display:inline">
    <rect
       style="opacity:0.5;fill:#000000;fill-opacity:1;stroke:none;stroke-width:0.92083335;stroke-linecap:round;stroke-linejoin:miter;stroke-miterlimit:4;stroke-dasharray:none;filter:url(#filter4857-0)"
       id="rect4983"
       width="24.563492"
       height="24.563492"
       x="316.19904"
       y="1071.0474" />
    <rect
       y="1069.0474"
       x="314.19904"
       height="24.563492"
       width="24.563492"
       id="rect4985"
       style="opacity:1;fill:#ff0000;fill-opacity:1;stroke:none;stroke-width:0.92083335;stroke-linecap:round;stroke-linejoin:miter;stroke-miterlimit:4;stroke-dasharray:none" />
    <path
       inkscape:connector-curvature="0"
       id="path4987"
       transform="translate(0,702.36218)"
       d="m 335.93359,366.68555 -21.73437,21.73633 v 2.82617 h 2.83008 l 21.73242,-21.73438 v -2.82812 z"
       style="color:#000000;font-style:normal;font-variant:normal;font-weight:normal;font-stretch:normal;font-size:medium;line-height:normal;font-family:sans-serif;font-variant-ligatures:normal;font-variant-position:normal;font-variant-caps:normal;font-variant-numeric:normal;font-variant-alternates:normal;font-feature-settings:normal;text-indent:0;text-align:start;text-decoration:none;text-decoration-line:none;text-decoration-style:solid;text-decoration-color:#000000;letter-spacing:normal;word-spacing:normal;text-transform:none;writing-mode:lr-tb;direction:ltr;text-orientation:mixed;dominant-baseline:auto;baseline-shift:baseline;text-anchor:start;white-space:normal;shape-padding:0;clip-rule:nonzero;display:inline;overflow:visible;visibility:visible;opacity:1;isolation:auto;mix-blend-mode:normal;color-interpolation:sRGB;color-interpolation-filters:linearRGB;solid-color:#000000;solid-opacity:1;vector-effect:none;fill:#ffffff;fill-opacity:1;fill-rule:nonzero;stroke:none;stroke-width:4;stroke-linecap:butt;stroke-linejoin:miter;stroke-miterlimit:4;stroke-dasharray:none;stroke-dashoffset:0;stroke-opacity:1;color-rendering:auto;image-rendering:auto;shape-rendering:auto;text-rendering:auto;enable-background:accumulate" />
    <path
       style="color:#000000;font-style:normal;font-variant:normal;font-weight:normal;font-stretch:normal;font-size:medium;line-height:normal;font-family:sans-serif;font-variant-ligatures:normal;font-variant-position:normal;font-variant-caps:normal;font-variant-numeric:normal;font-variant-alternates:normal;font-feature-settings:normal;text-indent:0;text-align:start;text-decoration:none;text-decoration-line:none;text-decoration-style:solid;text-decoration-color:#000000;letter-spacing:normal;word-spacing:normal;text-transform:none;writing-mode:lr-tb;direction:ltr;text-orientation:mixed;dominant-baseline:auto;baseline-shift:baseline;text-anchor:start;white-space:normal;shape-padding:0;clip-rule:nonzero;display:inline;overflow:visible;visibility:visible;opacity:1;isolation:auto;mix-blend-mode:normal;color-interpolation:sRGB;color-interpolation-filters:linearRGB;solid-color:#000000;solid-opacity:1;vector-effect:none;fill:#ffffff;fill-opacity:1;fill-rule:nonzero;stroke:none;stroke-width:4;stroke-linecap:butt;stroke-linejoin:miter;stroke-miterlimit:4;stroke-dasharray:none;stroke-dashoffset:0;stroke-opacity:1;color-rendering:auto;image-rendering:auto;shape-rendering:auto;text-rendering:auto;enable-background:accumulate"
       d="m 317.02735,1069.0477 21.73437,21.7364 v 2.8261 h -2.83008 l -21.73242,-21.7343 v -2.8282 z"
       id="path4989"
       inkscape:connector-curvature="0" />
  </g>
  <g
     transform="matrix(7.8272715,0,0,7.8272715,-2206.0053,-8929.2362)"
     id="g4999"
     style="display:inline">
    <rect
       y="1071.0474"
       x="316.19904"
       height="24.563492"
       width="24.563492"
       id="rect4993"
       style="opacity:0.5;fill:#000000;fill-opacity:1;stroke:none;stroke-width:0.92083335;stroke-linecap:round;stroke-linejoin:miter;stroke-miterlimit:4;stroke-dasharray:none;filter:url(#filter4857-0)" />
    <rect
       style="opacity:1;fill:#ff0000;fill-opacity:1;stroke:none;stroke-width:0.92083335;stroke-linecap:round;stroke-linejoin:miter;stroke-miterlimit:4;stroke-dasharray:none"
       id="rect4995"
       width="24.563492"
       height="24.563492"
       x="314.19904"
       y="1069.0474" />
    <path
       inkscape:connector-curvature="0"
       style="color:#000000;font-style:normal;font-variant:normal;font-weight:normal;font-stretch:normal;font-size:medium;line-height:normal;font-family:sans-serif;font-variant-ligatures:normal;font-variant-position:normal;font-variant-caps:normal;font-variant-numeric:normal;font-variant-alternates:normal;font-feature-settings:normal;text-indent:0;text-align:start;text-decoration:none;text-decoration-line:none;text-decoration-style:solid;text-decoration-color:#000000;letter-spacing:normal;word-spacing:normal;text-transform:none;writing-mode:lr-tb;direction:ltr;text-orientation:mixed;dominant-baseline:auto;baseline-shift:baseline;text-anchor:start;white-space:normal;shape-padding:0;clip-rule:nonzero;display:inline;overflow:visible;visibility:visible;opacity:1;isolation:auto;mix-blend-mode:normal;color-interpolation:sRGB;color-interpolation-filters:linearRGB;solid-color:#000000;solid-opacity:1;vector-effect:none;fill:#ffffff;fill-opacity:1;fill-rule:nonzero;stroke:none;stroke-width:4;stroke-linecap:butt;stroke-linejoin:miter;stroke-miterlimit:4;stroke-dasharray:none;stroke-dashoffset:0;stroke-opacity:1;color-rendering:auto;image-rendering:auto;shape-rendering:auto;text-rendering:auto;enable-background:accumulate"
       d="m 335.93359,366.68555 -21.73437,21.73633 v 2.82617 h 2.83008 l 21.73242,-21.73438 v -2.82812 z"
       transform="translate(0,702.36218)"
       id="path4997" />
  </g>
  <g
     transform="matrix(7.8124261,0,0,7.8124261,-2453.0607,-8094.7213)"
     id="g6159"
     style="display:inline">
    <path
       sodipodi:nodetypes="ccccccccccccc"
       inkscape:connector-curvature="0"
       style="color:#000000;font-style:normal;font-variant:normal;font-weight:normal;font-stretch:normal;font-size:medium;line-height:normal;font-family:sans-serif;font-variant-ligatures:normal;font-variant-position:normal;font-variant-caps:normal;font-variant-numeric:normal;font-variant-alternates:normal;font-feature-settings:normal;text-indent:0;text-align:start;text-decoration:none;text-decoration-line:none;text-decoration-style:solid;text-decoration-color:#000000;letter-spacing:normal;word-spacing:normal;text-transform:none;writing-mode:lr-tb;direction:ltr;text-orientation:mixed;dominant-baseline:auto;baseline-shift:baseline;text-anchor:start;white-space:normal;shape-padding:0;clip-rule:nonzero;display:inline;overflow:visible;visibility:visible;opacity:0.5;isolation:auto;mix-blend-mode:normal;color-interpolation:sRGB;color-interpolation-filters:linearRGB;solid-color:#000000;solid-opacity:1;vector-effect:none;fill:#000000;fill-opacity:1;fill-rule:nonzero;stroke:none;stroke-width:4;stroke-linecap:round;stroke-linejoin:round;stroke-miterlimit:4;stroke-dasharray:none;stroke-dashoffset:0;stroke-opacity:1;filter:url(#filter1403);color-rendering:auto;image-rendering:auto;shape-rendering:auto;text-rendering:auto;enable-background:accumulate"
       d="m 420.02154,974.37773 c -1.52075,0.0508 -2.43011,1.71369 -1.65234,3.02149 l 5.31445,9.2793 c 0.35656,0.62235 1.01907,1.00614 1.73633,1.00586 h 26.50781 c 0.71206,-9e-5 1.37037,-0.37872 1.72852,-0.99415 l 5.39844,-9.27929 c 0.79649,-1.3238 -0.14463,-3.01238 -1.68946,-3.03125 -0.73127,-0.009 -1.40907,0.38211 -1.76757,1.01953 l -2.49219,4.28516 h -28.81836 l -2.44727,-4.27344 c -0.36345,-0.65909 -1.06612,-1.05835 -1.81836,-1.03321 z"
       id="path6155" />
    <path
       transform="translate(0,697.36218)"
       sodipodi:nodetypes="ccccccccccccc"
       inkscape:connector-curvature="0"
       id="path6157"
       d="m 419.02148,275.01562 c -1.52075,0.0508 -2.43011,1.71369 -1.65234,3.02149 l 5.31445,9.2793 c 0.35656,0.62235 1.01907,1.00614 1.73633,1.00586 h 26.50781 c 0.71206,-9e-5 1.37037,-0.37872 1.72852,-0.99415 l 5.39844,-9.27929 c 0.79649,-1.3238 -0.14463,-3.01238 -1.68946,-3.03125 -0.73127,-0.009 -1.40907,0.38211 -1.76757,1.01953 l -2.49219,4.28516 h -28.81836 l -2.44727,-4.27344 c -0.36345,-0.65909 -1.06612,-1.05835 -1.81836,-1.03321 z"
       style="color:#000000;font-style:normal;font-variant:normal;font-weight:normal;font-stretch:normal;font-size:medium;line-height:normal;font-family:sans-serif;font-variant-ligatures:normal;font-variant-position:normal;font-variant-caps:normal;font-variant-numeric:normal;font-variant-alternates:normal;font-feature-settings:normal;text-indent:0;text-align:start;text-decoration:none;text-decoration-line:none;text-decoration-style:solid;text-decoration-color:#000000;letter-spacing:normal;word-spacing:normal;text-transform:none;writing-mode:lr-tb;direction:ltr;text-orientation:mixed;dominant-baseline:auto;baseline-shift:baseline;text-anchor:start;white-space:normal;shape-padding:0;clip-rule:nonzero;display:inline;overflow:visible;visibility:visible;opacity:1;isolation:auto;mix-blend-mode:normal;color-interpolation:sRGB;color-interpolation-filters:linearRGB;solid-color:#000000;solid-opacity:1;vector-effect:none;fill:#ff0000;fill-opacity:1;fill-rule:nonzero;stroke:none;stroke-width:4;stroke-linecap:round;stroke-linejoin:round;stroke-miterlimit:4;stroke-dasharray:none;stroke-dashoffset:0;stroke-opacity:1;color-rendering:auto;image-rendering:auto;shape-rendering:auto;text-rendering:auto;enable-background:accumulate" />
  </g>
  <g
     id="g6169"
     transform="translate(536.69405,-545.17933)">
    <path
       sodipodi:nodetypes="ccccc"
       inkscape:connector-curvature="0"
       id="path6161"
       d="M 540,-18 V 72 H 450 V -18 Z"
       style="opacity:0.5;fill:none;fill-opacity:1;stroke:#000000;stroke-width:12;stroke-linecap:round;stroke-linejoin:round;stroke-miterlimit:4;stroke-dasharray:none;stroke-opacity:1;filter:url(#filter6141)" />
    <path
       style="opacity:1;fill:none;fill-opacity:1;stroke:#ff0000;stroke-width:12;stroke-linecap:round;stroke-linejoin:round;stroke-miterlimit:4;stroke-dasharray:none;stroke-opacity:1"
       d="M 534,-24 V 66 H 444 V -24 Z"
       id="path6163"
       inkscape:connector-curvature="0"
       sodipodi:nodetypes="ccccc" />
    <path
       style="opacity:0.5;fill:none;fill-opacity:1;stroke:#000000;stroke-width:12;stroke-linecap:round;stroke-linejoin:round;stroke-miterlimit:4;stroke-dasharray:none;stroke-opacity:1;filter:url(#filter6145)"
       d="M 426,-18 V 72 H 336 V -18 Z"
       id="path6165"
       inkscape:connector-curvature="0"
       sodipodi:nodetypes="ccccc" />
    <path
       sodipodi:nodetypes="ccccc"
       inkscape:connector-curvature="0"
       id="path6167"
       d="M 420,-24 V 66 H 330 V -24 Z"
       style="opacity:1;fill:none;fill-opacity:1;stroke:#ff0000;stroke-width:12;stroke-linecap:round;stroke-linejoin:round;stroke-miterlimit:4;stroke-dasharray:none;stroke-opacity:1" />
  </g>
  <path
     d="m 1201.5208,64.910568 -96.4264,167.015412 -192.85276,0 -96.42639,-167.015412 96.42639,-167.015408 192.85276,0 z"
     inkscape:randomized="0"
     inkscape:rounded="0"
     inkscape:flatsided="true"
     sodipodi:arg2="0.52359878"
     sodipodi:arg1="0"
     sodipodi:r2="167.01543"
     sodipodi:r1="192.85278"
     sodipodi:cy="64.91057"
     sodipodi:cx="1008.668"
     sodipodi:sides="6"
     id="path6206"
     style="display:inline;opacity:1;fill:#819f9c;fill-opacity:1;stroke:#cccccc;stroke-width:7.81242609;stroke-miterlimit:4;stroke-dasharray:none"
     sodipodi:type="star" />
  <g
     id="g6210"
     transform="translate(284.25693,-166.44826)">
    <path
       style="opacity:0.5;fill:#000000;fill-opacity:1;stroke:none;stroke-width:12;stroke-linecap:round;stroke-linejoin:round;stroke-miterlimit:4;stroke-dasharray:none;stroke-opacity:1;filter:url(#filter6202)"
       d="m 720.36423,158.48558 -5.6206,54.79541 h -36.64454 v 23.69824 h -98.73486 l 13.5,38.6543 h 279.27833 l 9,-38.6543 h -67.27883 v -23.69824 h -42.12007 l 5.62057,-54.79541 h -22.5 l -5.6206,54.79541 h -12 l 5.6206,-54.79541 z"
       id="path6184"
       inkscape:connector-curvature="0" />
    <path
       inkscape:connector-curvature="0"
       id="rect6171"
       d="m 714.36396,152.48528 -5.6206,54.79541 h -36.64454 v 23.69824 h -98.73486 l 13.5,38.6543 h 279.27833 l 9,-38.6543 h -67.27883 v -23.69824 h -42.12007 l 5.62057,-54.79541 h -22.5 l -5.6206,54.79541 h -12 l 5.6206,-54.79541 z"
       style="opacity:1;fill:#ff0000;fill-opacity:1;stroke:none;stroke-width:12;stroke-linecap:round;stroke-linejoin:round;stroke-miterlimit:4;stroke-dasharray:none;stroke-opacity:1" />
  </g>
  <g
     id="g6294"
     transform="translate(-1.5,21)">
    <path
       style="opacity:0.5;fill:#000000;fill-opacity:1;stroke:none;stroke-width:12;stroke-linecap:round;stroke-linejoin:round;stroke-miterlimit:4;stroke-dasharray:none;stroke-opacity:1;filter:url(#filter6253)"
       d="m 463.49967,-46.695017 h 63.72792 l 6,111.301511 h -93.72792 z"
       id="path6217"
       inkscape:connector-curvature="0"
       sodipodi:nodetypes="ccccc" />
    <path
       sodipodi:nodetypes="ccccc"
       inkscape:connector-curvature="0"
       id="rect6212"
       d="m 454.5,-55.694913 h 63.72792 l 6,111.301511 H 430.5 Z"
       style="opacity:1;fill:#ffffff;fill-opacity:1;stroke:none;stroke-width:12;stroke-linecap:round;stroke-linejoin:round;stroke-miterlimit:4;stroke-dasharray:none;stroke-opacity:1" />
  </g>
  <g
     id="g6298"
     transform="translate(1.5,21)">
    <path
       sodipodi:nodetypes="ccccc"
       inkscape:connector-curvature="0"
       id="path6219"
       d="m 357.77175,-46.695017 h 63.72792 l 6,111.301511 h -93.72792 z"
       style="opacity:0.5;fill:#000000;fill-opacity:1;stroke:none;stroke-width:12;stroke-linecap:round;stroke-linejoin:round;stroke-miterlimit:4;stroke-dasharray:none;stroke-opacity:1;filter:url(#filter6257)" />
    <path
       style="opacity:1;fill:#ffffff;fill-opacity:1;stroke:none;stroke-width:12;stroke-linecap:round;stroke-linejoin:round;stroke-miterlimit:4;stroke-dasharray:none;stroke-opacity:1"
       d="M 348.77208,-55.694913 H 412.5 l 6,111.301511 h -93.72792 z"
       id="path6215"
       inkscape:connector-curvature="0"
       sodipodi:nodetypes="ccccc" />
  </g>
  <path
     style="fill:none;stroke:#ff0000;stroke-width:12;stroke-linecap:butt;stroke-linejoin:miter;stroke-opacity:1"
     d="M 1024.5,-451.5 V -597"
     id="path6263"
     inkscape:connector-curvature="0" />
  <path
     style="fill:none;stroke:#ff0000;stroke-width:12;stroke-linecap:butt;stroke-linejoin:miter;stroke-opacity:1"
     d="M 913.5,-445.5 V -594"
     id="path6265"
     inkscape:connector-curvature="0" />
</svg>
